<?xml version="1.0" encoding="UTF-8" standalone="no"?>
<!-- Created with Inkscape (http://www.inkscape.org/) -->

<svg
   inkscape:export-ydpi="19.200001"
   inkscape:export-xdpi="19.200001"
   inkscape:export-filename="drawing.png"
   sodipodi:docname="klimber-link.svg"
   inkscape:version="1.2.2 (732a01da63, 2022-12-09)"
   xml:space="preserve"
   id="svg2467"
   version="1.1"
   viewBox="0 0 529.1666 529.16661"
   height="2000"
   width="2000"
   xmlns:inkscape="http://www.inkscape.org/namespaces/inkscape"
   xmlns:sodipodi="http://sodipodi.sourceforge.net/DTD/sodipodi-0.dtd"
   xmlns:xlink="http://www.w3.org/1999/xlink"
   xmlns="http://www.w3.org/2000/svg"
   xmlns:svg="http://www.w3.org/2000/svg"><sodipodi:namedview
     id="namedview2469"
     pagecolor="#ffffff"
     bordercolor="#111111"
     borderopacity="1"
     inkscape:showpageshadow="0"
     inkscape:pageopacity="0"
     inkscape:pagecheckerboard="1"
     inkscape:deskcolor="#d1d1d1"
     inkscape:document-units="mm"
     showgrid="false"
     inkscape:zoom="0.18462928"
     inkscape:cx="1294.4859"
     inkscape:cy="1321.5672"
     inkscape:window-width="2560"
     inkscape:window-height="1009"
     inkscape:window-x="-8"
     inkscape:window-y="-8"
     inkscape:window-maximized="1"
     inkscape:current-layer="layer2" /><defs
     id="defs2464" /><g
     inkscape:groupmode="layer"
     id="layer2"
     inkscape:label="Layer 2"><image
       width="529.16669"
       height="529.16669"
       preserveAspectRatio="none"
       xlink:href="kilmber.jpg"
       id="image328"
       x="1.964319"
       y="1.1952718e-05" /><g
       id="layer2-0"
       inkscape:label="Layer 2"
       transform="translate(2.2290039e-4,-3.112793e-5)"
       style="fill:none;stroke:#fa0000;stroke-width:5.29167;stroke-dasharray:none;stroke-opacity:1"><path
         id="path3455"
         style="fill:none;fill-opacity:1;stroke:#fa0000;stroke-width:5.29167;stroke-dasharray:none;stroke-opacity:1;stop-color:#000000"
         d="m 408.795,267.899 -21.871,29.459 2.165,2.442 5.75,6.615 8.22,9.723 4.686,5.692 4.885,6.07 4.943,6.313 4.862,6.424 4.643,6.4 4.282,6.244 1.962,3.021 1.82,2.933 1.661,2.827 1.483,2.704 1.288,2.566 1.076,2.409 0.847,2.237 0.6,2.049 0.971,4.244 1.023,4.862 2.137,11.08 1.64,9.194 9.14,-8.718 4.243,-7.944 1.734,-11.852 -3.914,-19.181 -12.703,-29.929 -37.573,-57.884 v 0" /><path
         id="path3560"
         style="fill:none;fill-opacity:1;stroke:#fa0000;stroke-width:5.29167;stroke-dasharray:none;stroke-opacity:1;stop-color:#000000"
         d="m 210.804,118.49 -26.657,27.681 -2.724,-1.104 -7.386,-2.893 -10.861,-4.051 -6.364,-2.264 -6.79,-2.316 -7.066,-2.292 -7.195,-2.188 -7.177,-2.006 -7.01,-1.743 -3.396,-0.75 -3.299,-0.654 -3.182,-0.55 -3.049,-0.435 -2.897,-0.311 -2.725,-0.177 -2.535,-0.033 -2.327,0.122 -4.685,0.346 -5.1211,0.24 -5.4544,0.146 -5.6865,0.063 -4.1827,-0.028 -7.1686,15.532 42.1793,14.503 58.71,30.598 89.108,57.244 88.159,67.061 56.62,52.194 39.139,45.917 8.087,-2.935 -1.64,-9.194 -2.137,-11.08 -1.023,-4.862 -0.971,-4.244 -0.6,-2.049 -0.847,-2.237 -1.076,-2.409 -1.288,-2.566 -1.483,-2.704 -1.661,-2.827 -1.82,-2.933 -1.962,-3.021 -4.282,-6.244 -4.643,-6.4 -4.862,-6.424 -4.943,-6.313 -4.885,-6.07 -4.686,-5.692 -8.22,-9.723 -5.75,-6.615 -2.165,-2.442 21.871,-29.459 -39.627,-40.72 -57.065,-46.808 -53.014,-36.29 -48.285,-25.591 v 0" /><path
         id="path3555"
         style="fill:none;fill-opacity:1;stroke:#fa0000;stroke-width:5.29167;stroke-dasharray:none;stroke-opacity:1;stop-color:#000000"
         d="m 73.0343,123.293 4.1827,0.028 5.6865,-0.063 5.4544,-0.146 5.1211,-0.24 4.685,-0.346 2.327,-0.122 2.535,0.034 2.725,0.176 2.897,0.311 3.049,0.435 3.182,0.55 3.299,0.655 3.396,0.749 7.01,1.743 7.177,2.006 7.195,2.188 7.066,2.292 6.79,2.316 6.364,2.264 10.861,4.051 7.386,2.893 2.724,1.105 26.657,-27.682 -41.915,-15.349 -34.624,-5.8622 -24.438,2.7632 -18.6914,7.56 -16.15,11.463 -1.9513,4.228" /><path
         style="fill:none;fill-opacity:1;stroke:#fa0000;stroke-width:5.29167;stroke-dasharray:none;stroke-opacity:1;stop-color:#000000"
         d="m 232.05044,422.55471 -12.15985,-3.03995 -5.57327,-66.37251 34.95957,19.75975 17.22644,10.13322 6.58659,32.42625 z"
         id="path3572" /></g></g></svg>
