<?xml version="1.0" encoding="UTF-8" standalone="no"?>
<!-- Created with Inkscape (http://www.inkscape.org/) -->

<svg
   inkscape:export-ydpi="120"
   inkscape:export-xdpi="120"
   inkscape:export-filename="delaunay-3.png"
   sodipodi:docname="klimber-delaunay-3.svg"
   inkscape:version="1.2.2 (732a01da63, 2022-12-09)"
   xml:space="preserve"
   id="svg2467"
   version="1.1"
   viewBox="0 0 529.1666 529.16664"
   height="2000.0001"
   width="2000"
   xmlns:inkscape="http://www.inkscape.org/namespaces/inkscape"
   xmlns:sodipodi="http://sodipodi.sourceforge.net/DTD/sodipodi-0.dtd"
   xmlns="http://www.w3.org/2000/svg"
   xmlns:svg="http://www.w3.org/2000/svg"><sodipodi:namedview
     id="namedview2469"
     pagecolor="#ffffff"
     bordercolor="#111111"
     borderopacity="1"
     inkscape:showpageshadow="0"
     inkscape:pageopacity="0"
     inkscape:pagecheckerboard="1"
     inkscape:deskcolor="#d1d1d1"
     inkscape:document-units="mm"
     showgrid="false"
     inkscape:zoom="0.26110523"
     inkscape:cx="608.94989"
     inkscape:cy="909.59496"
     inkscape:window-width="1350"
     inkscape:window-height="1032"
     inkscape:window-x="668"
     inkscape:window-y="0"
     inkscape:window-maximized="0"
     inkscape:current-layer="layer1" /><defs
     id="defs2464" /><g
     inkscape:label="Layer 1"
     inkscape:groupmode="layer"
     id="layer1"
     transform="translate(151.372, 39.9525)"><rect
       style="font-variation-settings:normal;opacity:1;vector-effect:none;fill:#5588bf;fill-opacity:1;stroke:none;stroke-width:1;stroke-linecap:round;stroke-linejoin:round;stroke-miterlimit:4;stroke-dasharray:none;stroke-dashoffset:0;stroke-opacity:1;-inkscape-stroke:none;stop-color:#000000;stop-opacity:1"
       id="rect1299"
       width="529.16663"
       height="529.16656"
       x="-151.37199"
       y="-39.952499" /></g><g
     inkscape:groupmode="layer"
     id="layer2"
     inkscape:label="Layer 2"><g
       inkscape:label="Delaunay"
       id="g447"
       style="stroke:none"><path
         d="M 91.3255 121.979 L 111.085 99.3055 L 88.9189 107.285 Z"
         style="fill:#e2e583;stroke:none;stroke-linecap:round;stroke-linejoin:round;stroke-width:1"
         id="path281" /><path
         d="M 72.1991 124.005 L 91.3255 121.979 L 88.9189 107.285 Z"
         style="fill:#e2d95a;stroke:none;stroke-linecap:round;stroke-linejoin:round;stroke-width:1"
         id="path283" /><path
         d="M 111.085 99.3055 L 130.592 130.592 L 137.685 99.1788 Z"
         style="fill:#dfe483;stroke:none;stroke-linecap:round;stroke-linejoin:round;stroke-width:1"
         id="path285" /><path
         d="M 130.592 130.592 L 160.485 101.585 L 137.685 99.1788 Z"
         style="fill:#dae182;stroke:none;stroke-linecap:round;stroke-linejoin:round;stroke-width:1"
         id="path287" /><path
         d="M 130.592 130.592 L 150.985 138.572 L 160.485 101.585 Z"
         style="fill:#ded756;stroke:none;stroke-linecap:round;stroke-linejoin:round;stroke-width:1"
         id="path289" /><path
         d="M 91.3255 121.979 L 130.592 130.592 L 111.085 99.3055 Z"
         style="fill:#e5db54;stroke:none;stroke-linecap:round;stroke-linejoin:round;stroke-width:1"
         id="path291" /><path
         d="M 150.985 138.572 L 188.098 110.199 L 160.485 101.585 Z"
         style="fill:#d3d97a;stroke:none;stroke-linecap:round;stroke-linejoin:round;stroke-width:1"
         id="path293" /><path
         d="M 150.985 138.572 L 182.651 145.412 L 188.098 110.199 Z"
         style="fill:#ded655;stroke:none;stroke-linecap:round;stroke-linejoin:round;stroke-width:1"
         id="path295" /><path
         d="M 182.651 145.412 L 216.724 119.445 L 188.098 110.199 Z"
         style="fill:#dcca60;stroke:none;stroke-linecap:round;stroke-linejoin:round;stroke-width:1"
         id="path297" /><path
         d="M 67.1325 136.925 L 91.3255 121.979 L 72.1991 124.005 Z"
         style="fill:#f19606;stroke:none;stroke-linecap:round;stroke-linejoin:round;stroke-width:1"
         id="path299" /><path
         d="M 102.105 150.47 L 130.592 130.592 L 91.3255 121.979 Z"
         style="fill:#f89e04;stroke:none;stroke-linecap:round;stroke-linejoin:round;stroke-width:1"
         id="path301" /><path
         d="M 67.1325 136.925 L 102.105 150.47 L 91.3255 121.979 Z"
         style="fill:#f79b07;stroke:none;stroke-linecap:round;stroke-linejoin:round;stroke-width:1"
         id="path303" /><path
         d="M 133.274 163.368 L 150.985 138.572 L 130.592 130.592 Z"
         style="fill:#f59703;stroke:none;stroke-linecap:round;stroke-linejoin:round;stroke-width:1"
         id="path305" /><path
         d="M 102.105 150.47 L 133.274 163.368 L 130.592 130.592 Z"
         style="fill:#f69604;stroke:none;stroke-linecap:round;stroke-linejoin:round;stroke-width:1"
         id="path307" /><path
         d="M 216.724 119.445 L 228.572 176.265 L 249.351 137.573 Z"
         style="fill:#e38611;stroke:none;stroke-linecap:round;stroke-linejoin:round;stroke-width:1"
         id="path309" /><path
         d="M 182.651 145.412 L 228.572 176.265 L 216.724 119.445 Z"
         style="fill:#ed8f03;stroke:none;stroke-linecap:round;stroke-linejoin:round;stroke-width:1"
         id="path311" /><path
         d="M 150.985 138.572 L 167.667 183.789 L 182.651 145.412 Z"
         style="fill:#f09003;stroke:none;stroke-linecap:round;stroke-linejoin:round;stroke-width:1"
         id="path313" /><path
         d="M 133.274 163.368 L 167.667 183.789 L 150.985 138.572 Z"
         style="fill:#f29004;stroke:none;stroke-linecap:round;stroke-linejoin:round;stroke-width:1"
         id="path315" /><path
         d="M 228.572 176.265 L 280.162 157.636 L 249.351 137.573 Z"
         style="fill:#dd7707;stroke:none;stroke-linecap:round;stroke-linejoin:round;stroke-width:1"
         id="path317" /><path
         d="M 228.572 176.265 L 264.756 203.135 L 280.162 157.636 Z"
         style="fill:#df7803;stroke:none;stroke-linecap:round;stroke-linejoin:round;stroke-width:1"
         id="path319" /><path
         d="M 167.667 183.789 L 228.572 176.265 L 182.651 145.412 Z"
         style="fill:#eb8602;stroke:none;stroke-linecap:round;stroke-linejoin:round;stroke-width:1"
         id="path321" /><path
         d="M 264.756 203.135 L 318.854 187.013 L 280.162 157.636 Z"
         style="fill:#d36d07;stroke:none;stroke-linecap:round;stroke-linejoin:round;stroke-width:1"
         id="path323" /><path
         d="M 224.273 220.332 L 264.756 203.135 L 228.572 176.265 Z"
         style="fill:#dc7203;stroke:none;stroke-linecap:round;stroke-linejoin:round;stroke-width:1"
         id="path325" /><path
         d="M 167.667 183.789 L 224.273 220.332 L 228.572 176.265 Z"
         style="fill:#e67c04;stroke:none;stroke-linecap:round;stroke-linejoin:round;stroke-width:1"
         id="path327" /><path
         d="M 315.044 240.167 L 358.621 217.824 L 318.854 187.013 Z"
         style="fill:#ba5807;stroke:none;stroke-linecap:round;stroke-linejoin:round;stroke-width:1"
         id="path329" /><path
         d="M 264.756 203.135 L 315.044 240.167 L 318.854 187.013 Z"
         style="fill:#ce6602;stroke:none;stroke-linecap:round;stroke-linejoin:round;stroke-width:1"
         id="path331" /><path
         d="M 224.273 220.332 L 267.981 252.217 L 264.756 203.135 Z"
         style="fill:#d26705;stroke:none;stroke-linecap:round;stroke-linejoin:round;stroke-width:1"
         id="path333" /><path
         d="M 267.981 252.217 L 315.044 240.167 L 264.756 203.135 Z"
         style="fill:#bb5907;stroke:none;stroke-linecap:round;stroke-linejoin:round;stroke-width:1"
         id="path335" /><path
         d="M 315.044 240.167 L 348.582 270.557 L 358.621 217.824 Z"
         style="fill:#b65202;stroke:none;stroke-linecap:round;stroke-linejoin:round;stroke-width:1"
         id="path337" /><path
         d="M 348.582 270.557 L 388.357 247.201 L 358.621 217.824 Z"
         style="fill:#a34708;stroke:none;stroke-linecap:round;stroke-linejoin:round;stroke-width:1"
         id="path339" /><path
         d="M 312.405 282.669 L 348.582 270.557 L 315.044 240.167 Z"
         style="fill:#bf5603;stroke:none;stroke-linecap:round;stroke-linejoin:round;stroke-width:1"
         id="path341" /><path
         d="M 267.981 252.217 L 312.405 282.669 L 315.044 240.167 Z"
         style="fill:#c85d08;stroke:none;stroke-linecap:round;stroke-linejoin:round;stroke-width:1"
         id="path343" /><path
         d="M 388.357 247.201 L 389.79 299.866 L 405.554 264.756 Z"
         style="fill:#954d20;stroke:none;stroke-linecap:round;stroke-linejoin:round;stroke-width:1"
         id="path345" /><path
         d="M 348.582 270.557 L 389.79 299.866 L 388.357 247.201 Z"
         style="fill:#a04605;stroke:none;stroke-linecap:round;stroke-linejoin:round;stroke-width:1"
         id="path347" /><path
         d="M 389.79 299.866 L 424.183 286.61 L 405.554 264.756 Z"
         style="fill:#86854c;stroke:none;stroke-linecap:round;stroke-linejoin:round;stroke-width:1"
         id="path349" /><path
         d="M 312.405 282.669 L 340.35 305.598 L 348.582 270.557 Z"
         style="fill:#cc5d04;stroke:none;stroke-linecap:round;stroke-linejoin:round;stroke-width:1"
         id="path351" /><path
         d="M 340.35 305.598 L 389.79 299.866 L 348.582 270.557 Z"
         style="fill:#af4c03;stroke:none;stroke-linecap:round;stroke-linejoin:round;stroke-width:1"
         id="path353" /><path
         d="M 408.42 328.527 L 424.183 286.61 L 389.79 299.866 Z"
         style="fill:#acb458;stroke:none;stroke-linecap:round;stroke-linejoin:round;stroke-width:1"
         id="path355" /><path
         d="M 382.983 339.992 L 408.42 328.527 L 389.79 299.866 Z"
         style="fill:#ca7821;stroke:none;stroke-linecap:round;stroke-linejoin:round;stroke-width:1"
         id="path357" /><path
         d="M 408.42 328.527 L 450.337 333.901 L 424.183 286.61 Z"
         style="fill:#a6b76b;stroke:none;stroke-linecap:round;stroke-linejoin:round;stroke-width:1"
         id="path359" /><path
         d="M 340.35 305.598 L 382.983 339.992 L 389.79 299.866 Z"
         style="fill:#be5406;stroke:none;stroke-linecap:round;stroke-linejoin:round;stroke-width:1"
         id="path361" /><path
         d="M 424.9 345.007 L 450.337 333.901 L 408.42 328.527 Z"
         style="fill:#cbce80;stroke:none;stroke-linecap:round;stroke-linejoin:round;stroke-width:1"
         id="path363" /><path
         d="M 397.314 354.322 L 408.42 328.527 L 382.983 339.992 Z"
         style="fill:#c85d08;stroke:none;stroke-linecap:round;stroke-linejoin:round;stroke-width:1"
         id="path365" /><path
         d="M 224.273 220.332 L 220.144 353.776 L 267.981 252.217 Z"
         style="fill:#608ebf;stroke:none;stroke-linecap:round;stroke-linejoin:round;stroke-width:1"
         id="path367" /><path
         d="M 224.273 220.332 L 212.417 355.802 L 220.144 353.776 Z"
         style="fill:#5385ba;stroke:none;stroke-linecap:round;stroke-linejoin:round;stroke-width:1"
         id="path369" /><path
         d="M 397.314 354.322 L 424.9 345.007 L 408.42 328.527 Z"
         style="fill:#d7892e;stroke:none;stroke-linecap:round;stroke-linejoin:round;stroke-width:1"
         id="path371" /><path
         d="M 437.081 366.861 L 450.337 333.901 L 424.9 345.007 Z"
         style="fill:#d9dc92;stroke:none;stroke-linecap:round;stroke-linejoin:round;stroke-width:1"
         id="path373" /><path
         d="M 220.144 353.776 L 312.405 282.669 L 267.981 252.217 Z"
         style="fill:#608ec0;stroke:none;stroke-linecap:round;stroke-linejoin:round;stroke-width:1"
         id="path375" /><path
         d="M 397.314 354.322 L 416.66 372.952 L 424.9 345.007 Z"
         style="fill:#d3741a;stroke:none;stroke-linecap:round;stroke-linejoin:round;stroke-width:1"
         id="path377" /><path
         d="M 416.66 372.952 L 437.081 366.861 L 424.9 345.007 Z"
         style="fill:#e49e35;stroke:none;stroke-linecap:round;stroke-linejoin:round;stroke-width:1"
         id="path379" /><path
         d="M 248.897 373.409 L 312.405 282.669 L 220.144 353.776 Z"
         style="fill:#5a8abe;stroke:none;stroke-linecap:round;stroke-linejoin:round;stroke-width:1"
         id="path381" /><path
         d="M 437.081 366.861 L 459.651 375.46 L 450.337 333.901 Z"
         style="fill:#cdd481;stroke:none;stroke-linecap:round;stroke-linejoin:round;stroke-width:1"
         id="path383" /><path
         d="M 212.797 380.249 L 220.144 353.776 L 212.417 355.802 Z"
         style="fill:#4a617d;stroke:none;stroke-linecap:round;stroke-linejoin:round;stroke-width:1"
         id="path385" /><path
         d="M 167.667 183.789 L 212.417 355.802 L 224.273 220.332 Z"
         style="fill:#5a8abd;stroke:none;stroke-linecap:round;stroke-linejoin:round;stroke-width:1"
         id="path387" /><path
         d="M 212.797 380.249 L 226.857 382.275 L 220.144 353.776 Z"
         style="fill:#243652;stroke:none;stroke-linecap:round;stroke-linejoin:round;stroke-width:1"
         id="path389" /><path
         d="M 226.857 382.275 L 248.897 373.409 L 220.144 353.776 Z"
         style="fill:#517cae;stroke:none;stroke-linecap:round;stroke-linejoin:round;stroke-width:1"
         id="path391" /><path
         d="M 264.223 382.655 L 312.405 282.669 L 248.897 373.409 Z"
         style="fill:#5989be;stroke:none;stroke-linecap:round;stroke-linejoin:round;stroke-width:1"
         id="path393" /><path
         d="M 437.081 366.861 L 447.112 387.641 L 459.651 375.46 Z"
         style="fill:#e6e396;stroke:none;stroke-linecap:round;stroke-linejoin:round;stroke-width:1"
         id="path395" /><path
         d="M 264.223 382.655 L 340.35 305.598 L 312.405 282.669 Z"
         style="fill:#608ebf;stroke:none;stroke-linecap:round;stroke-linejoin:round;stroke-width:1"
         id="path397" /><path
         d="M 212.797 380.249 L 219.891 393.422 L 226.857 382.275 Z"
         style="fill:#111219;stroke:none;stroke-linecap:round;stroke-linejoin:round;stroke-width:1"
         id="path399" /><path
         d="M 454.994 396.597 L 459.651 375.46 L 447.112 387.641 Z"
         style="fill:#dbda84;stroke:none;stroke-linecap:round;stroke-linejoin:round;stroke-width:1"
         id="path401" /><path
         d="M 416.66 372.952 L 447.112 387.641 L 437.081 366.861 Z"
         style="fill:#e39320;stroke:none;stroke-linecap:round;stroke-linejoin:round;stroke-width:1"
         id="path403" /><path
         d="M 238.89 402.162 L 248.897 373.409 L 226.857 382.275 Z"
         style="fill:#2d2f39;stroke:none;stroke-linecap:round;stroke-linejoin:round;stroke-width:1"
         id="path405" /><path
         d="M 219.891 393.422 L 238.89 402.162 L 226.857 382.275 Z"
         style="fill:#555762;stroke:none;stroke-linecap:round;stroke-linejoin:round;stroke-width:1"
         id="path407" /><path
         d="M 238.89 402.162 L 264.223 382.655 L 248.897 373.409 Z"
         style="fill:#3e4355;stroke:none;stroke-linecap:round;stroke-linejoin:round;stroke-width:1"
         id="path409" /><path
         d="M 438.156 404.837 L 454.994 396.597 L 447.112 387.641 Z"
         style="fill:#efc965;stroke:none;stroke-linecap:round;stroke-linejoin:round;stroke-width:1"
         id="path411" /><path
         d="M 416.66 372.952 L 438.156 404.837 L 447.112 387.641 Z"
         style="fill:#d57c26;stroke:none;stroke-linecap:round;stroke-linejoin:round;stroke-width:1"
         id="path413" /><path
         d="M 216.217 411.155 L 238.89 402.162 L 219.891 393.422 Z"
         style="fill:#818388;stroke:none;stroke-linecap:round;stroke-linejoin:round;stroke-width:1"
         id="path415" /><path
         d="M 238.89 402.162 L 270.81 413.182 L 264.223 382.655 Z"
         style="fill:#1d293a;stroke:none;stroke-linecap:round;stroke-linejoin:round;stroke-width:1"
         id="path417" /><path
         d="M 212.797 380.249 L 216.217 411.155 L 219.891 393.422 Z"
         style="fill:#5086bf;stroke:none;stroke-linecap:round;stroke-linejoin:round;stroke-width:1"
         id="path419" /><path
         d="M 216.217 411.155 L 229.897 424.328 L 238.89 402.162 Z"
         style="fill:#252528;stroke:none;stroke-linecap:round;stroke-linejoin:round;stroke-width:1"
         id="path421" /><path
         d="M 264.223 382.655 L 382.983 339.992 L 340.35 305.598 Z"
         style="fill:#5f8dbe;stroke:none;stroke-linecap:round;stroke-linejoin:round;stroke-width:1"
         id="path423" /><path
         d="M 229.897 424.328 L 270.81 413.182 L 238.89 402.162 Z"
         style="fill:#090c12;stroke:none;stroke-linecap:round;stroke-linejoin:round;stroke-width:1"
         id="path425" /><path
         d="M 133.274 163.368 L 212.417 355.802 L 167.667 183.789 Z"
         style="fill:#5a8abd;stroke:none;stroke-linecap:round;stroke-linejoin:round;stroke-width:1"
         id="path427" /><path
         d="M 270.81 413.182 L 382.983 339.992 L 264.223 382.655 Z"
         style="fill:#5587bd;stroke:none;stroke-linecap:round;stroke-linejoin:round;stroke-width:1"
         id="path429" /><path
         d="M 270.81 413.182 L 397.314 354.322 L 382.983 339.992 Z"
         style="fill:#5d8cbe;stroke:none;stroke-linecap:round;stroke-linejoin:round;stroke-width:1"
         id="path431" /><path
         d="M 102.105 150.47 L 212.417 355.802 L 133.274 163.368 Z"
         style="fill:#608fc1;stroke:none;stroke-linecap:round;stroke-linejoin:round;stroke-width:1"
         id="path433" /><path
         d="M 270.81 413.182 L 416.66 372.952 L 397.314 354.322 Z"
         style="fill:#5c8bbe;stroke:none;stroke-linecap:round;stroke-linejoin:round;stroke-width:1"
         id="path435" /><path
         d="M 270.81 413.182 L 438.156 404.837 L 416.66 372.952 Z"
         style="fill:#5e8dc0;stroke:none;stroke-linecap:round;stroke-linejoin:round;stroke-width:1"
         id="path437" /><path
         d="M 67.1325 136.925 L 212.417 355.802 L 102.105 150.47 Z"
         style="fill:#6693c4;stroke:none;stroke-linecap:round;stroke-linejoin:round;stroke-width:1"
         id="path439" /><path
         d="M 67.1325 136.925 L 212.797 380.249 L 212.417 355.802 Z"
         style="fill:#5688bf;stroke:none;stroke-linecap:round;stroke-linejoin:round;stroke-width:1"
         id="path441" /><path
         d="M 67.1325 136.925 L 216.217 411.155 L 212.797 380.249 Z"
         style="fill:#5488bf;stroke:none;stroke-linecap:round;stroke-linejoin:round;stroke-width:1"
         id="path443" /><path
         d="M 229.897 424.328 L 438.156 404.837 L 270.81 413.182 Z"
         style="fill:#5588bf;stroke:none;stroke-linecap:round;stroke-linejoin:round;stroke-width:1"
         id="path445" /></g></g></svg>
