<?xml version="1.0" encoding="UTF-8" standalone="no"?>
<!-- Created with Inkscape (http://www.inkscape.org/) -->

<svg
   width="63.999996"
   height="63.999996"
   viewBox="0 0 63.999996 63.999996"
   version="1.1"
   id="svg1"
   xml:space="preserve"
   inkscape:version="1.4 (86a8ad7, 2024-10-11)"
   sodipodi:docname="mona-stripes.svg"
   inkscape:export-filename="mona-stripes.png"
   inkscape:export-xdpi="3072.0002"
   inkscape:export-ydpi="3072.0002"
   xmlns:inkscape="http://www.inkscape.org/namespaces/inkscape"
   xmlns:sodipodi="http://sodipodi.sourceforge.net/DTD/sodipodi-0.dtd"
   xmlns="http://www.w3.org/2000/svg"
   xmlns:svg="http://www.w3.org/2000/svg"><sodipodi:namedview
     id="namedview1"
     pagecolor="#ffffff"
     bordercolor="#111111"
     borderopacity="1"
     inkscape:showpageshadow="0"
     inkscape:pageopacity="0"
     inkscape:pagecheckerboard="1"
     inkscape:deskcolor="#d1d1d1"
     inkscape:document-units="px"
     inkscape:zoom="5.943771"
     inkscape:cx="40.714893"
     inkscape:cy="31.966238"
     inkscape:window-width="2560"
     inkscape:window-height="1009"
     inkscape:window-x="-8"
     inkscape:window-y="-8"
     inkscape:window-maximized="1"
     inkscape:current-layer="layer1" /><defs
     id="defs1" /><g
     inkscape:label="Layer 1"
     inkscape:groupmode="layer"
     id="layer1"><rect
       style="fill:#f9f9f9;stroke-width:7.55906;stroke-linecap:round;stroke-linejoin:round;paint-order:fill markers stroke"
       id="rect2"
       width="64.047279"
       height="64"
       x="0"
       y="0" /><path
       id="rect1"
       style="fill:#000000;stroke:none;stroke-width:4.40623;stroke-linecap:round;stroke-linejoin:round;paint-order:fill markers stroke"
       d="m 0.33007813,0 v 1 h 0.0117188 v 1 h -0.005859 v 1 h -0.009766 v 1 h 0.003906 V 5 H 0.34375 V 6 7 H 0.341797 V 8 H 0.337891 v 1 h 0.001953 v 1 H 0.34961 v 1 h 0.0117188 v 1 h 0.0175781 v 1 H 0.390625 v 1 h 0.009766 v 1 H 0.390625 v 1 H 0.382812 v 1 h 0.007813 v 1 h 0.003906 v 1 H 0.392578 v 1 h 0.007813 v 1 h 0.007813 v 1 h 0.001953 v 1 1 H 0.3984383 v 1 h 0.001953 v 1 h 0.015625 v 1 H 0.4023444 v 1 H 0.3378913 v 1 h -0.109375 v 1 H 0.13086 v 1 H 0.08007813 v 1 H 0.04882814 v 1 H 0.02929689 v 1 h -0.0019531 v 1 H 0.01367195 v 1 H 7.027572e-8 v 1 H -0.0058593 v 1 h 0.00390624 v 1 h 0.00585937 v 1 H 7.027572e-8 v 1 H -0.0058593 v 1 h -0.00195307 v 1 h -0.00585937 v 1 h -0.0058595 v 1 h -0.0019537 v 1 h 0.0039061 v 1 h 0.01367188 v 1 H -7.7917928e-7 v 1 H 0.01171796 v 1 h 0.02539062 v 1 H 0.01171796 v 1 H -7.7917928e-7 v 1 H 0.03515547 v 1 h 0.0078125 v 1 h 0.0058594 v 1 h 0.04492187 v 1 H 0.1308586 v 1 H 0.152343 v 1 H 0.136718 v 1 H 0.126952 v 1 1 H 0.08984295 v 1 H 0.06445233 v 1 h 0.87109454 v -1 h -0.0253906 v -1 h -0.0371094 v -1 -1 h -0.009766 v -1 h -0.0156249 v -1 h 0.0214844 v -1 h 0.0371094 v -1 h 0.0449219 v -1 h 0.00586 v -1 h 0.007813 V 53 H 1.000001 v -1 h -0.0117188 v -1 h -0.0253906 v -1 h 0.0253906 v -1 h 0.0117188 0.00977 v 1 h 0.021484 v 1 H 1.013677 v 1 h -0.00977 v 1 H 1.04297 v 1 h 0.011719 v 1 h 0.011719 v 1 h 0.046875 v 1 H 1.14258 v 1 1 H 1.121096 v 1 1 h -0.00977 v 1 H 1.091795 v 1 h -0.00195 v 1 h 0.8203125 v -1 h -0.00195 v -1 h -0.019531 v -1 h -0.00977 v -1 -1 h -0.021484 v -1 -1 h 0.029297 v -1 h 0.046875 v -1 h 0.011719 v -1 h 0.011719 v -1 h 0.039064 v -1 h -0.00977 v -1 h -0.017578 v -1 h 0.021484 v -1 h 0.00977 0.013672 v 1 h 0.021484 v 1 h -0.02539 v 1 h -0.00586 v 1 h 0.054687 v 1 h 0.03125 v 1 h 0.00781 v 1 h 0.033203 v 1 h 0.015625 v 1 h -0.013672 v 1 h -0.00977 v 1 1 h -0.021484 v 1 h -0.025391 v 1 h -0.00391 v 1 h 0.8554687 v -1 h -0.00391 v -1 h -0.025391 v -1 h -0.021484 v -1 -1 h -0.00977 v -1 h -0.013672 v -1 h 0.015625 v -1 h 0.033203 v -1 h 0.00781 v -1 h 0.03125 v -1 h 0.054687 v -1 h -0.00586 v -1 h -0.025391 v -1 h 0.021484 v -1 h 0.013672 0.013672 v 1 h 0.025391 v 1 h -0.03125 v 1 h -0.00781 v 1 h 0.060547 v 1 h 0.050781 v 1 h 0.00195 v 1 h 0.00977 v 1 h -0.00781 v 1 h -0.00977 v 1 h 0.00391 v 1 h 0.00195 v 1 h -0.013672 v 1 h -0.033203 v 1 h -0.017578 v 1 h 0.90625 v -1 h -0.017577 v -1 h -0.033203 v -1 h -0.013673 v -1 h 0.00194 v -1 h 0.00391 v -1 h -0.00977 v -1 h -0.00781 v -1 h 0.00977 v -1 h 0.00194 v -1 h 0.050782 v -1 h 0.060547 v -1 h -0.00781 v -1 h -0.03125 v -1 h 0.025392 v -1 h 0.017577 0.015623 v 1 h 0.019531 v 1 h -0.021484 v 1 h -0.00194 v 1 h 0.048828 v 1 h 0.042969 v 1 h 0.00391 v 1 h -0.00194 v 1 h -0.00781 v 1 h -0.00194 v 1 h 0.00391 v 1 h -0.00194 v 1 h -0.00781 v 1 h -0.025392 v 1 h -0.019531 v 1 H 4.951199 V 63 H 4.93163 V 62 H 4.906238 v -1 h -0.00781 v -1 h -0.00194 v -1 h 0.00391 v -1 h -0.00194 v -1 h -0.00781 v -1 h -0.00194 v -1 h 0.00391 V 54 H 4.935587 V 53 H 4.984363 V 52 H 4.982423 V 51 H 4.960939 V 50 H 4.98047 v -1 h 0.015623 v -1 h 0.00586 v 1 h 0.015623 v 1 h 0.011719 v 1 h -0.00194 v 1 h 0.00781 v 1 h 0.033203 v 1 H 5.09376 v 1 h 0.00781 v 1 h 0.00391 v 1 H 5.09767 v 1 H 5.09181 v 1 h 0.00391 v 1 H 5.09181 v 1 H 5.078137 v 1 H 5.06056 v 1 H 5.05079 v 1 h 0.8984376 v -1 h -0.00977 v -1 h -0.017577 v -1 h -0.013673 v -1 h -0.00391 v -1 h 0.00391 v -1 h -0.00586 v -1 h -0.00781 v -1 h 0.00391 v -1 h 0.00781 V 54 H 5.93168 v -1 h 0.033203 v -1 h 0.00781 v -1 h -0.00194 v -1 h 0.011719 v -1 h 0.00194 0.011719 v 1 h 0.015623 v 1 h -0.00194 v 1 h 0.00194 v 1 h 0.017577 v 1 h 0.017577 v 1 h 0.019531 v 1 H 6.07816 v 1 H 6.07035 v 1 H 6.06254 v 1 h 0.00391 v 1 H 6.06451 v 1 H 6.043026 v 1 H 6.015684 v 1 H 6.000057 v 1 h 1.0000002 1.0097655 0.9941406 1.0273437 1.003907 0.99414 1.00586 1.001953 0.998047 1.003906 1.003906 1 1.001953 1 1 0.998047 1 1.001953 1 1 1.001953 0.980469 v -1 h -0.0039 v -1 h -0.01172 v -1 h -0.01758 v -1 h -0.01172 v -1 h 0.0059 v -1 h 0.02148 v -1 h 0.0078 v 1 h 0.07031 v 1 h 0.05469 v 1 h 0.02344 v 1 h -0.02344 v 1 h -0.0293 v 1 h -0.0098 v 1 h 0.792969 v -1 h -0.0098 v -1 h -0.0293 v -1 h -0.02344 v -1 h 0.02344 v -1 h 0.05469 v -1 h 0.07031 v -1 h 0.01563 v 1 h 0.07031 v 1 h 0.06836 v 1 h 0.06641 v 1 h 0.0293 v 1 h -0.0039 v 1 h -0.0039 v 1 h 0.550781 v -1 h -0.0039 v -1 h -0.0039 v -1 h 0.0293 v -1 h 0.06641 v -1 h 0.06836 v -1 h 0.07031 0.03125 v 1 h 0.0625 v 1 h 0.06836 v 1 h 0.04883 v 1 h 0.0098 v 1 h -0.0019 v 1 h 0.558593 v -1 h -0.0019 v -1 h 0.0098 v -1 h 0.04883 v -1 h 0.06836 v -1 h 0.0625 v -1 h 0.04687 v 1 h 0.05469 v 1 h 0.06055 v 1 h 0.04883 v 1 h 0.03125 v 1 h 0.01172 v 1 h 0.558593 v -1 h 0.01172 v -1 h 0.03125 v -1 h 0.04883 v -1 h 0.06055 v -1 h 0.05469 v -1 h 0.01367 v 1 h 0.04297 v 1 h 0.04687 v 1 h 0.05078 v 1 h 0.05078 v 1 h 0.01563 v 1 h 0.585937 v -1 h 0.01563 v -1 h 0.05078 v -1 h 0.05078 v -1 h 0.04687 v -1 h 0.04297 0.0098 v 1 h 0.03711 v 1 h 0.05859 v 1 h 0.06055 v 1 h 0.02344 v 1 h 0.621093 v -1 h 0.02344 v -1 h 0.06055 v -1 h 0.05859 v -1 h 0.03711 0.03711 v 1 h 0.05469 v 1 h 0.04687 v 1 h 0.02149 v 1 h 0.699218 v -1 h 0.02147 v -1 h 0.04688 v -1 h 0.05469 v -1 h 0.03711 0.0098 v 1 h 0.04297 v 1 h 0.03126 v 1 h 0.01172 v 1 h 0.789062 v -1 h 0.01172 v -1 h 0.03126 v -1 h 0.04297 v -1 h 0.0332 v 1 h 0.03516 v 1 h 0.02929 v 1 h 0.01563 v 1 h 0.812501 v -1 h 0.01563 v -1 h 0.02929 v -1 h 0.03516 v -1 h 0.002 0.02538 v 1 h 0.03126 v 1 h 0.03711 v 1 h 0.02147 v 1 h 0.79297 v -1 h 0.02147 v -1 h 0.03711 v -1 h 0.03126 v -1 h 0.02538 0.0039 v 1 h 0.03515 v 1 h 0.03516 v 1 h 0.01563 v 1 h 0.796874 v -1 h 0.01563 v -1 h 0.03516 v -1 h 0.03516 v -1 h 0.02344 0.01172 v 1 h 0.0332 v 1 h 0.0332 v 1 h 0.01366 v 1 h 0.800782 v -1 h 0.01366 v -1 h 0.0332 v -1 h 0.0332 v -1 h 0.01954 v -1 h 0.0098 v 1 h 0.01563 v 1 h 0.02929 v 1 h 0.0332 v 1 h 0.01366 v 1 h 0.796878 v -1 h 0.01366 v -1 h 0.0332 v -1 h 0.02929 v -1 h 0.01563 v -1 h 0.01563 0.01757 v 1 h 0.01954 v 1 h 0.02929 v 1 h 0.03516 v 1 h 0.01172 v 1 h 0.76172 v -1 h 0.01172 v -1 h 0.03515 v -1 h 0.02929 v -1 h 0.01954 v -1 h 0.02344 v -1 h 0.0098 v 1 h 0.03126 v 1 h 0.02344 v 1 h 0.02929 v 1 h 0.03906 v 1 h 0.02345 v 1 h 0.687498 v -1 h 0.02345 v -1 h 0.03906 v -1 h 0.02929 v -1 h 0.02345 v -1 h 0.03126 V 58 H 43.018 v 1 h 0.0332 v 1 h 0.02735 v 1 h 0.02538 v 1 h 0.03516 v 1 h 0.02147 v 1 h 0.679687 v -1 h 0.02147 v -1 h 0.03516 v -1 h 0.02538 v -1 h 0.02735 v -1 h 0.0332 v -1 h 0.03126 0.0098 v 1 h 0.02735 v 1 h 0.03126 v 1 h 0.02735 v 1 h 0.0332 v 1 h 0.02344 v 1 h 0.667967 v -1 h 0.02344 v -1 h 0.0332 v -1 h 0.02735 v -1 h 0.03126 v -1 h 0.02735 v -1 h 0.02929 0.01366 v 1 h 0.01563 v 1 h 0.02929 v 1 h 0.03126 v 1 h 0.02929 v 1 h 0.01563 v 1 h 0.718751 v -1 h 0.01563 v -1 h 0.02929 v -1 h 0.03126 v -1 h 0.02929 v -1 h 0.01757 v -1 h 0.01757 0.0078 v 1 h 0.0078 v 1 h 0.02538 v 1 h 0.03126 v 1 h 0.02538 v 1 h 0.0078 v 1 h 0.789062 v -1 h 0.0078 v -1 h 0.02538 v -1 h 0.03126 v -1 h 0.02538 v -1 h 0.0078 0.0098 v 1 h 0.01172 v 1 h 0.02147 v 1 h 0.02929 v 1 h 0.01172 v 1 h 0.847658 v -1 h 0.01172 v -1 h 0.02929 v -1 h 0.02147 0.01563 v 1 h 0.01563 v 1 h 0.0039 v 1 h 0.95703 v -1 h 0.0039 v -1 h 0.002 v 1 1 h 1.031251 1.009765 1.003906 1.007814 1.00586 1.001952 0.999999 0.998049 1.001952 0.994141 0.992187 1.003907 1.003906 1.00586 1.001953 v -1 -1 h -0.002 v -1 -1 -1 -1 -1 -1 h -0.002 v -1 h -0.0039 v -1 -1 -1 -1 -1 h -0.002 v -1 h -0.0059 v -1 -1 h 0.0078 v -1 h 0.0039 v -1 h -0.002 v -1 h -0.0098 v -1 h -0.002 v -1 h 0.0098 v -1 h 0.002 v -1 h -0.0039 v -1 h -0.0078 v -1 h -0.0039 v -1 h -0.01563 v -1 h -0.03711 v -1 h -0.01366 v -1 h 0.01563 v -1 h 0.02345 v -1 h 0.01172 v -1 h -0.0098 v -1 h -0.0098 v -1 h 0.0039 v -1 h -0.01172 v -1 h 0.002 v -1 h 0.0078 v -1 h -0.0039 v -1 h -0.01172 v -1 h -0.0332 v -1 h -0.02929 v -1 h -0.002 v -1 h -0.01366 v -1 h -0.06055 v -1 h -0.0332 v -1 h -0.05273 v -1 h -0.07227 v -1 h -0.02344 v -1 -1 h -0.0039 v -1 h -0.02147 v -1 h -0.01172 v -1 h -0.01172 V 9 h 0.0098 V 8 h 0.02929 V 7 h 0.03126 V 6 h 0.01172 V 5 h 0.002 V 4 h -0.01172 V 3 h 0.0039 V 2 h 0.0332 V 1 h 0.02538 V 0 h -0.484373 v 1 h 0.02538 v 1 h 0.0332 v 1 h 0.0039 v 1 h -0.01172 v 1 h 0.002 v 1 h 0.01172 v 1 h 0.03126 v 1 h 0.02929 v 1 h 0.0098 v 1 h -0.01172 v 1 h -0.01172 v 1 h -0.02147 v 1 h -0.0039 v 1 1 h -0.02344 v 1 h -0.07227 v 1 h -0.05273 v 1 h -0.0332 v 1 H 63.1016 v 1 h -0.01366 v 1 h -0.002 v 1 h -0.02929 v 1 h -0.0332 v 1 h -0.01172 v 1 h -0.0039 v 1 h 0.0078 v 1 h 0.002 v 1 h -0.01172 v 1 h 0.0039 v 1 h -0.0098 v 1 h -0.0059 v -1 h -0.01563 v -1 h 0.0039 v -1 h -0.0098 v -1 h 0.002 v -1 h 0.01366 v -1 h -0.002 v -1 h -0.01757 v -1 h -0.03516 v -1 h -0.02735 v -1 h -0.01172 v -1 h -0.02735 v -1 h -0.03906 v -1 h -0.0332 v -1 h -0.05859 v -1 h -0.06641 v -1 h -0.02538 v -1 h 0.0078 v -1 h -0.0039 v -1 h -0.01563 v -1 h -0.0039 V 10 H 62.6171 V 9 H 62.621 V 8 h 0.02538 V 7 h 0.01954 V 6 h 0.0098 V 5 h 0.0059 V 4 h 0.002 V 3 h 0.0098 V 2 h 0.02735 V 1 h 0.02147 V 0 h -0.484376 v 1 h 0.02147 v 1 h 0.02735 v 1 h 0.0098 v 1 h 0.002 v 1 h 0.0058 v 1 h 0.0098 v 1 h 0.01954 v 1 h 0.02538 v 1 h 0.0039 v 1 h -0.01172 v 1 h -0.0039 v 1 h -0.01563 v 1 h -0.0039 v 1 h 0.0078 v 1 h -0.02538 v 1 h -0.06641 v 1 h -0.05859 v 1 h -0.0332 v 1 h -0.03906 v 1 h -0.02735 v 1 h -0.01172 v 1 h -0.02735 v 1 h -0.03515 v 1 h -0.01954 v 1 1 h 0.01366 v 1 h 0.002 v 1 h -0.0098 v 1 h 0.0039 v 1 h -0.0078 -0.01757 v -1 -1 h -0.0078 v -1 h -0.0098 v -1 h 0.002 v -1 h -0.01563 v -1 h -0.03516 v -1 h -0.02929 v -1 h -0.01954 v -1 h -0.03126 v -1 h -0.02929 v -1 h -0.01563 v -1 h -0.04101 v -1 h -0.06445 v -1 h -0.05273 v -1 h -0.01757 v -1 h 0.0039 v -1 h -0.0059 v -1 h -0.002 v -1 h 0.0058 v -1 h 0.002 V 9 h 0.0039 V 8 h 0.01563 V 7 h 0.0058 V 6 h 0.0039 V 5 h 0.0058 V 4 h 0.01172 V 3 h 0.02148 V 2 h 0.01757 V 1 h 0.0039 V 0 h -0.445312 v 1 h 0.0039 v 1 h 0.01757 v 1 h 0.02147 v 1 h 0.01172 v 1 h 0.0078 v 1 h 0.002 v 1 h 0.0058 v 1 h 0.01563 v 1 h 0.0039 v 1 h 0.002 v 1 h 0.0058 v 1 h -0.002 v 1 h -0.0058 v 1 h 0.0039 v 1 h -0.01757 v 1 h -0.05469 v 1 h -0.0625 v 1 h -0.04102 v 1 h -0.01563 v 1 h -0.02929 v 1 h -0.03126 v 1 h -0.01954 v 1 h -0.02929 v 1 h -0.03516 v 1 h -0.01172 -0.01757 v -1 h -0.01757 v -1 h -0.01366 v -1 h -0.01757 v -1 h -0.02538 v -1 h -0.02538 v -1 h -0.04297 v -1 h -0.08398 v -1 h -0.08985 v -1 h -0.04687 v -1 h -0.01366 v -1 h -0.0078 v -1 h -0.0039 v -1 h 0.002 v -1 h 0.0058 v -1 h 0.01563 V 9 h 0.0098 V 8 h 0.0058 V 7 h -0.002 V 6 h -0.002 V 5 h 0.0078 V 4 h 0.01172 V 3 h 0.01954 V 2 h 0.01757 V 1 h -0.0098 V 0 h -0.398435 v 1 h -0.0098 v 1 h 0.01757 v 1 h 0.01954 v 1 h 0.01172 v 1 h 0.0078 v 1 h -0.002 v 1 h -0.002 v 1 h 0.0058 v 1 h 0.0098 v 1 h 0.01366 v 1 h 0.0078 v 1 h 0.0039 v 1 h -0.0059 v 1 h -0.0078 v 1 h -0.01366 v 1 h -0.04687 v 1 h -0.08985 v 1 h -0.08398 v 1 h -0.04297 v 1 h -0.02538 v 1 h -0.02538 v 1 h -0.002 -0.0039 v -1 h -0.002 v -1 h -0.0078 v -1 h -0.01954 v -1 h -0.04492 v -1 h -0.08008 v -1 h -0.08594 v -1 h -0.08203 v -1 h -0.06836 v -1 h -0.01954 v -1 h 0.002 v -1 h 0.0078 v -1 h 0.0098 V 9 h 0.002 V 8 h 0.0058 V 7 6 h -0.01172 V 5 h 0.0039 V 4 h 0.02147 V 3 h 0.01563 V 2 h 0.01757 V 1 h -0.0039 V 0 h -0.394531 v 1 h -0.0039 v 1 h 0.01757 v 1 h 0.01563 v 1 h 0.02147 v 1 h 0.0039 v 1 h -0.01172 v 1 1 h 0.0058 v 1 h 0.002 v 1 h 0.0098 v 1 h 0.0078 v 1 h 0.002 v 1 h -0.01954 v 1 h -0.06836 v 1 h -0.08203 v 1 h -0.08594 v 1 h -0.07617 -0.0098 v -1 h -0.02345 v -1 h -0.0451 v -1 h -0.09375 v -1 h -0.119141 v -1 h -0.07226 v -1 h -0.02538 v -1 h -0.0039 V 9 h 0.0059 V 8 h 0.002 V 7 h -0.0078 V 6 h -0.0078 V 5 h 0.0098 V 4 h 0.01172 V 3 h 0.01172 V 2 h 0.01757 V 1 h 0.0059 V 0 h -0.394531 v 1 h 0.0058 v 1 h 0.01757 v 1 h 0.01172 v 1 h 0.01172 v 1 h 0.0098 v 1 h -0.0078 v 1 h -0.0078 v 1 h 0.002 v 1 h 0.0058 v 1 h -0.0039 v 1 h -0.02538 v 1 h -0.07226 v 1 h -0.119142 v 1 h -0.08594 -0.01757 v -1 h -0.04883 v -1 h -0.08398 v -1 h -0.115234 v -1 h -0.0957 V 9 h -0.02538 V 8 h -0.0039 V 7 h -0.01366 V 6 h 0.0098 V 5 h 0.01172 V 4 h -0.002 V 3 h 0.002 V 2 h 0.01954 V 1 0 h -0.363282 v 1 1 h 0.01954 v 1 h 0.002 v 1 h -0.002 v 1 h 0.01172 v 1 h 0.0098 v 1 h -0.01366 v 1 h -0.0039 V 9 H 57.3166 v 1 h -0.0957 v 1 h -0.115234 v 1 h -0.06445 -0.0098 v -1 h -0.04102 v -1 h -0.10763 V 9 H 56.730469 V 8 h -0.06641 V 7 h -0.0078 V 6 h 0.0058 V 5 h 0.0078 V 4 h -0.0078 V 3 2 h 0.0098 V 1 h -0.0039 V 0 H 56.33202 v 1 h -0.0039 v 1 h 0.0098 v 1 1 h -0.0078 v 1 h 0.0078 v 1 h 0.0078 v 1 h -0.0098 v 1 h -0.06836 v 1 h -0.150391 v 1 h -0.07422 -0.01563 V 9 h -0.08008 V 8 H 55.804648 V 7 H 55.699179 V 6 h -0.02735 V 5 h 0.0039 V 4 h -0.002 V 3 h -0.002 V 2 h -0.002 V 1 h 0.0058 V 0 H 55.3239 v 1 h 0.0058 v 1 h -0.002 v 1 h -0.002 v 1 h -0.002 v 1 h 0.0039 v 1 h -0.02735 v 1 h -0.105469 v 1 h -0.142579 v 1 h -0.0078 -0.0058 V 8 h -0.04297 V 7 H 54.862697 V 6 H 54.720118 V 5 h -0.03906 V 4 h 0.0058 V 3 h -0.0039 V 2 h -0.002 V 1 h 0.0078 V 0 h -0.378905 v 1 h 0.0078 v 1 h -0.002 v 1 h -0.0039 v 1 h 0.0058 v 1 h -0.03906 v 1 h -0.142579 v 1 h -0.09375 -0.02538 V 6 H 53.897666 V 5 H 53.741417 V 4 h -0.05078 V 3 h -0.0098 V 2 h 0.0078 V 1 h 0.0039 V 0 h -0.386716 v 1 h 0.0039 v 1 h 0.0078 v 1 h -0.0098 v 1 h -0.05078 v 1 h -0.156248 v 1 h -0.05664 -0.01954 V 5 H 52.92578 V 4 H 52.767578 V 3 h -0.08203 V 2 h 0.002 V 1 0 h -0.375 v 1 1 h 0.002 v 1 h -0.08203 v 1 h -0.158203 v 1 h -0.02929 -0.01366 V 4 h -0.09375 V 3 H 51.763862 V 2 h -0.06445 V 1 h -0.0039 V 0 h -0.390627 v 1 h -0.0039 v 1 h -0.06445 v 1 h -0.173829 v 1 h -0.01757 -0.01563 V 3 H 50.920115 V 2 H 50.759959 V 1 h -0.03906 V 0 H 50.27949 v 1 h -0.03906 v 1 h -0.160157 v 1 h -0.03711 -0.02735 V 2 H 49.877137 V 1 H 49.750184 V 0 h -0.499999 v 1 h -0.126956 v 1 h -0.08398 -0.05273 V 1 h -0.16211 V 0 h -0.648437 v 1 h -0.148437 -0.08594 V 0 h -0.882811 v 1 h -0.02929 -0.01954 V 0 H 46.023628 45.021676 44.01972 43.011909 42.015815 41.025581 40.03144 39.035346 38.039251 37.04316 h -1.000003 -0.998045 -1.001953 -1 -1.003907 -1.003906 -1.017578 -1.033203 -0.0019 -0.966797 v 1 h 0.0098 v 1 h -0.0039 v 1 h -0.0039 v 1 h 0.0019 v 1 h 0.0098 v 1 h 0.0957 v 1 h 0.156251 v 1 h 0.05859 v 1 h 0.03906 v 1 h 0.02539 v 1 h 0.0098 v 1 1 h -0.0039 v 1 1 h -0.0059 v 1 h -0.0078 v 1 h -0.0039 v 1 h 0.0039 v 1 h 0.0019 v 1 h 0.0019 v 1 h -0.01172 v 1 h -0.02344 v 1 h -0.07813 v 1 h -0.109523 v 1 h -0.08203 v 1 h -0.04297 v 1 h -0.01758 v 1 h 0.01172 v 1 h 0.03516 v 1 h 0.04102 v 1 h 0.04687 v 1 h 0.0332 v 1 h 0.0059 v 1 h -0.0039 v 1 h -0.0098 v 1 h -0.01367 v 1 h 0.0039 v 1 h -0.06445 v 1 H 28 v 1 h -0.0019 v -1 h -0.125 v -1 h -0.08594 v -1 h -0.01563 v -1 h -0.01367 v -1 h 0.0019 v -1 -1 h -0.0059 v -1 h 0.02148 v -1 h 0.03125 v -1 h 0.02344 v -1 h 0.02149 v -1 h 0.0059 v -1 h -0.0332 v -1 h -0.05469 v -1 h -0.06836 v -1 h -0.06836 v -1 h -0.02539 v -1 h -0.0019 v -1 h -0.0059 v -1 h 0.0019 v -1 h 0.0078 v -1 h -0.0019 v -1 h -0.0078 v -1 h -0.0098 v -1 h -0.0059 v -1 -1 -1 h -0.0039 v -1 h 0.0039 v -1 h 0.02734 V 9 h 0.0332 V 8 h 0.04687 V 7 h 0.126953 V 6 h 0.09961 V 5 h 0.0098 V 4 h -0.0019 V 3 h 0.01172 V 2 h 0.01953 V 1 h 0.03711 V 0 h -0.97461 -0.982422 -1.001953 -1.044922 -0.980469 v 1 h -0.0039 -0.134766 V 0 H 22.128895 V 1 H 21.99413 V 2 H 21.916 V 1 H 21.75 V 0 h -0.5 v 1 h -0.166016 v 1 h -0.101562 v 1 h -0.04297 V 2 H 20.791016 V 1 H 20.71289 V 0 h -0.425781 v 1 h -0.07813 v 1 h -0.148437 v 1 h -0.07227 v 1 h -0.05469 V 3 h -0.13866 V 2 h -0.08789 V 1 h -0.01563 V 0 h -0.382811 v 1 h -0.01563 v 1 h -0.08789 v 1 h -0.138672 v 1 h -0.07813 v 1 h -0.04883 V 4 H 18.794922 V 3 h -0.0918 V 2 h -0.02539 V 1 h -0.0098 V 0 h -0.335937 v 1 h -0.0098 v 1 h -0.02539 v 1 h -0.0918 v 1 h -0.144531 v 1 h -0.07813 v 1 h -0.07227 V 5 h -0.13273 V 4 h -0.07422 V 3 h -0.01953 V 2 h -0.01367 V 1 h -0.01367 V 0 h -0.3125 v 1 h -0.01367 v 1 h -0.01367 v 1 h -0.01953 v 1 h -0.07422 v 1 h -0.132812 v 1 h -0.08789 v 1 h -0.02148 v 1 h -0.04101 V 7 H 16.83789 V 6 H 16.726563 V 5 h -0.05078 V 4 h -0.0078 V 3 h 0.0078 V 2 1 h -0.0039 V 0 h -0.34375 v 1 h -0.0039 v 1 1 h 0.0078 v 1 h -0.0078 v 1 h -0.05078 v 1 h -0.111328 v 1 h -0.101563 v 1 h -0.06055 v 1 h -0.01562 v 1 h -0.0215 V 9 H 15.86914 V 8 H 15.748047 V 7 h -0.08203 V 6 h -0.01367 V 5 4 h -0.0019 V 3 h 0.0098 V 2 h 0.01953 V 1 h 0.0098 V 0 h -0.378921 v 1 h 0.0098 v 1 h 0.01953 v 1 h 0.0098 v 1 h -0.0019 v 1 1 h -0.01367 v 1 h -0.08203 v 1 h -0.121093 v 1 h -0.09375 v 1 h -0.03906 v 1 h -0.01172 v 1 h -0.01759 v -1 h -0.08398 V 10 H 14.775391 V 9 H 14.673828 V 8 h -0.03711 V 7 h -0.0019 V 6 h 0.0039 V 5 h 0.01367 V 4 3 h 0.0039 V 2 h 0.01563 V 1 h 0.01758 V 0 h -0.378906 v 1 h 0.01758 v 1 h 0.01563 v 1 h 0.0039 v 1 1 h 0.01367 v 1 h 0.0039 v 1 h -0.0019 v 1 h -0.03711 V 9 H 14.22465 v 1 h -0.109375 v 1 h -0.08399 v 1 h -0.06055 v 1 h -0.03125 v -1 h -0.123047 v -1 h -0.103516 v -1 h -0.06445 V 9 h -0.02148 V 8 h 0.0039 V 7 h 0.0078 V 6 h 0.0078 V 5 h 0.0078 V 4 h -0.0019 V 3 h 0.01172 V 2 h 0.01172 V 1 h 0.02149 V 0 h -0.394588 v 1 h 0.02149 v 1 h 0.01172 v 1 h 0.01172 v 1 h -0.0019 v 1 h 0.0078 v 1 h 0.0078 v 1 h 0.0078 v 1 h 0.0039 v 1 h -0.02148 v 1 h -0.06445 v 1 h -0.103516 v 1 h -0.123046 v 1 h -0.07814 v 1 h -0.01562 v 1 h 0.0039 v 1 h -0.0039 v 1 h -0.01953 v -1 h -0.01758 v -1 h 0.0019 v -1 h -0.07617 v -1 h -0.115235 v -1 h -0.07031 v -1 h -0.0293 V 10 H 12.62694 V 9 h -0.0059 V 8 h 0.0078 V 7 h 0.01172 V 6 h 0.01758 V 5 h 0.0039 V 4 3 h 0.01758 V 2 h 0.01953 V 1 h 0.01953 V 0 h -0.4375 v 1 h 0.01953 v 1 h 0.01953 v 1 h 0.01758 v 1 1 h 0.0039 v 1 h 0.01758 v 1 h 0.01172 v 1 h 0.0078 v 1 h -0.0059 v 1 h -0.01367 v 1 h -0.0293 v 1 h -0.07031 v 1 h -0.115234 v 1 h -0.07617 v 1 h 0.0019 v 1 h -0.01758 v 1 h -0.05078 v 1 h -0.01953 v 1 h -0.0019 -0.0098 v -1 h -0.06053 v -1 h -0.08008 v -1 h -0.04687 v -1 h -0.0625 v -1 h -0.0625 v -1 h -0.01953 v -1 h -0.01563 v -1 h -0.0039 v -1 h 0.0019 V 9 h -0.0019 V 8 h 0.01172 V 7 h 0.01758 V 6 h 0.01563 V 5 h 0.0039 V 4 h 0.0059 V 3 h 0.01367 V 2 h 0.01367 V 1 h 0.01367 V 0 h -0.429692 v 1 h 0.01367 v 1 h 0.01367 v 1 h 0.01367 v 1 h 0.0059 v 1 h 0.0039 v 1 h 0.01562 v 1 h 0.01758 v 1 h 0.01172 v 1 h -0.0019 v 1 h 0.0019 v 1 h -0.0039 v 1 h -0.01563 v 1 h -0.01953 v 1 h -0.0625 v 1 h -0.0625 v 1 h -0.04687 v 1 h -0.08008 v 1 h -0.06055 v 1 h -0.01758 v 1 h -0.01172 v 1 h -0.01367 -0.0293 v -1 h -0.03711 v -1 h -0.04297 v -1 h -0.0586 v -1 h -0.07813 v -1 h -0.08984 v -1 h -0.04883 v -1 h 0.0039 v -1 h 0.01172 v -1 h -0.0039 v -1 h -0.0039 v -1 h 0.0059 V 9 h 0.0078 V 8 h 0.01562 V 7 h 0.01563 V 6 h 0.0059 V 5 h 0.0039 V 4 h 0.0098 V 3 h 0.01172 V 2 h 0.0039 V 1 h 0.0059 V 0 h -0.390625 v 1 h 0.0059 v 1 h 0.0039 v 1 h 0.01172 v 1 h 0.0098 v 1 h 0.0039 v 1 h 0.0059 v 1 h 0.01563 v 1 h 0.01563 v 1 h 0.0078 v 1 h 0.0059 v 1 h -0.0039 v 1 h -0.0039 v 1 h 0.01172 v 1 h 0.0039 v 1 h -0.04883 v 1 h -0.08984 v 1 h -0.07813 v 1 h -0.05859 v 1 h -0.04297 v 1 h -0.03711 v 1 h -0.0293 v 1 h -0.0059 v 1 h 0.0078 v 1 h 0.0059 v 1 h -0.0019 v 1 h -0.0098 v 1 H 9.9980632 9.974625 V 26 H 9.9550943 V 25 H 9.9375174 V 24 H 9.916033 V 23 H 9.904314 V 22 H 9.892595 V 21 H 9.859392 V 20 H 9.816423 V 19 H 9.773454 V 18 H 9.707048 V 17 H 9.625016 V 16 H 9.582048 v -1 h -0.00391 v -1 h 0.015627 v -1 h 0.017577 v -1 h -0.00194 v -1 h 0.00391 v -1 h 0.00977 V 9 H 9.640659 V 8 H 9.652378 V 7 h 0.00194 V 6 h 0.00781 V 5 h 0.00977 V 4 h 0.00391 V 3 2 h 0.00586 V 1 H 9.695341 V 0 H 9.3047023 v 1 h 0.013673 v 1 h 0.00586 v 1 1 h 0.00391 v 1 h 0.00977 v 1 h 0.00781 v 1 h 0.00194 v 1 h 0.011719 v 1 h 0.017577 v 1 h 0.00977 v 1 h 0.00391 v 1 h -0.00194 v 1 h 0.017577 v 1 h 0.015626 v 1 h -0.00391 v 1 h -0.042969 v 1 h -0.082032 v 1 h -0.066406 v 1 h -0.042969 v 1 h -0.042969 v 1 h -0.033204 v 1 h -0.011732 v 1 H 9.083984 v 1 H 9.0625 v 1 H 9.044923 v 1 H 9.025392 v 1 H 9.001954 v 1 H 8.986327 v 1 1 h 0.00586 v 1 1 1 h 0.00194 v 1 H 8.988267 8.986327 8.966796 v -1 h -0.00781 v -1 h -0.00586 v -1 h 0.00977 v -1 h 0.00194 V 29 H 8.947259 V 28 H 8.939449 V 27 26 H 8.9199101 V 25 H 8.8925678 V 24 H 8.8515524 V 23 H 8.802724 V 22 H 8.7617086 V 21 H 8.7363167 V 20 H 8.7070207 V 19 H 8.6582032 V 18 H 8.6132813 V 17 H 8.5839853 V 16 H 8.57422 v -1 -1 h 0.017577 v -1 h 0.017577 v -1 h 0.00391 v -1 h 0.00586 V 10 H 8.632812 V 9 H 8.652343 V 8 h 0.00586 V 7 H 8.654293 V 6 H 8.666012 V 5 H 8.677731 V 4 H 8.667961 V 3 H 8.666021 V 2 h 0.00781 V 1 H 8.689458 V 0 H 8.3105641 v 1 h 0.015627 v 1 h 0.00781 v 1 h -0.00194 v 1 h -0.00977 v 1 h 0.011719 v 1 h 0.011719 v 1 h -0.00391 v 1 h 0.00586 v 1 h 0.019531 v 1 h 0.013673 v 1 h 0.00586 v 1 h 0.00391 v 1 h 0.017577 v 1 h 0.015627 v 1 h 0.00194 v 1 h -0.00977 v 1 h -0.029296 v 1 h -0.044922 v 1 h -0.048828 v 1 h -0.029296 v 1 h -0.025392 v 1 h -0.041016 v 1 h -0.048828 v 1 h -0.041016 v 1 h -0.027342 v 1 h -0.019531 v 1 1 h -0.00781 v 1 h -0.017577 v 1 h 0.00194 v 1 h 0.00977 v 1 h -0.00586 v 1 h -0.00781 v 1 h -0.021484 v 1 h -0.00586 -0.023438 v -1 h -0.021484 v -1 h -0.021484 v -1 h -0.021484 v -1 h -0.03125 v -1 h -0.054687 v -1 h -0.033203 v -1 h 0.015627 v -1 h 0.017577 v -1 h -0.017587 v -1 h -0.042969 v -1 h -0.050781 v -1 h -0.041016 v -1 h -0.033203 v -1 h -0.027342 v -1 h -0.015623 v -1 h -0.00781 v -1 h 0.00391 v -1 h -0.00586 v -1 h -0.00977 v -1 h 0.00586 v -1 h 0.011719 v -1 h 0.017577 v -1 h 0.00977 v -1 h -0.00194 v -1 h 0.00977 V 9 h 0.017577 V 8 7 6 h 0.00977 V 5 h 0.00194 V 4 h -0.00194 V 3 h 0.011719 V 2 h 0.00781 V 1 h 0.00781 V 0 H 7.3086112 v 1 h 0.00781 v 1 h 0.00781 v 1 h 0.011719 v 1 h -0.00194 v 1 h 0.00194 v 1 h 0.00977 v 1 1 1 h 0.017577 v 1 h 0.00977 v 1 h -0.00194 v 1 h 0.00977 v 1 h 0.017577 v 1 h 0.011719 v 1 h 0.00391 v 1 h -0.00781 v 1 h -0.00586 v 1 h 0.00391 v 1 h -0.00781 v 1 h -0.017577 v 1 h -0.025392 v 1 h -0.033204 v 1 h -0.041016 v 1 h -0.050781 v 1 h -0.042969 v 1 h -0.017577 v 1 h 0.017577 v 1 h 0.015623 v 1 h -0.033203 v 1 h -0.0547 v 1 h -0.03125 v 1 H 7.06058 v 1 H 7.039096 v 1 H 7.017611 v 1 H 7.0097994 6.988315 V 34 H 6.9629231 V 33 H 6.9258138 V 32 H 6.865267 V 31 H 6.785189 V 30 H 6.71683 V 29 H 6.701207 V 28 H 6.699267 V 27 H 6.683644 V 26 H 6.668017 V 25 H 6.638721 V 24 H 6.605518 v -1 h -0.00781 v -1 h 0.00194 v -1 -1 h 0.00194 v -1 -1 h 0.00781 v -1 h 0.00194 v -1 h -0.00586 v -1 h -0.00586 v -1 h 0.00586 v -1 h 0.021484 v -1 h 0.017577 v -1 h 0.00194 v -1 h 0.00194 V 9 h 0.00781 V 8 h 0.00194 V 7 H 6.656229 V 6 h 0.00391 V 5 h 0.00391 V 4 h 0.00781 V 3 h 0.00781 V 2 h 0.00586 V 1 H 6.701156 V 0 H 6.298812 v 1 h 0.015626 v 1 h 0.00586 v 1 h 0.00781 v 1 h 0.00781 v 1 h 0.00391 v 1 h 0.00391 v 1 h -0.00194 v 1 h 0.00194 v 1 h 0.00781 v 1 h 0.00194 v 1 h 0.00194 v 1 h 0.017577 v 1 h 0.021484 v 1 h 0.00586 v 1 h -0.00586 v 1 h -0.00586 v 1 h 0.00194 v 1 h 0.00781 v 1 1 h 0.00194 v 1 1 h 0.00194 v 1 h -0.00781 v 1 H 6.361246 v 1 H 6.33195 v 1 H 6.316323 v 1 H 6.30067 v 1 H 6.29873 v 1 H 6.283103 v 1 H 6.214744 v 1 H 6.134666 v 1 h -0.06045 v 1 h -0.03711 v 1 H 6.011714 v 1 H 5.9941404 V 34 H 5.9824213 V 33 H 5.955079 V 32 H 5.890626 V 31 H 5.794923 V 30 H 5.714845 V 29 H 5.687503 V 28 H 5.662111 V 27 H 5.636719 V 26 H 5.621096 V 25 H 5.609377 V 24 H 5.595704 V 23 H 5.582031 v -1 h 0.00586 V 21 H 5.59961 v -1 h 0.00586 v -1 h 0.00586 v -1 h 0.013673 v -1 h 0.00977 v -1 h -0.00781 v -1 h -0.00781 v -1 -1 h 0.015623 v -1 h 0.017577 v -1 -1 h 0.00391 V 9 h 0.00586 V 8 H 5.658213 V 7 h 0.00194 V 6 h 0.00781 V 5 h 0.00391 V 4 h 0.00194 V 3 H 5.669903 V 2 H 5.664043 V 1 H 5.683574 V 0 H 5.3163698 v 1 h 0.019531 v 1 h -0.00586 v 1 h -0.00391 v 1 h 0.00194 v 1 h 0.00391 v 1 h 0.00781 v 1 h 0.00194 v 1 h -0.00391 v 1 h 0.00586 v 1 h 0.00391 v 1 1 h 0.017577 v 1 h 0.015623 v 1 1 h -0.00781 v 1 h -0.00781 v 1 h 0.00977 v 1 h 0.013673 v 1 h 0.00586 v 1 h 0.00586 v 1 h 0.011719 v 1 h 0.00586 v 1 h -0.013673 v 1 h -0.013673 v 1 h -0.011719 v 1 h -0.015623 v 1 h -0.025392 v 1 h -0.025392 v 1 h -0.027342 v 1 h -0.080078 v 1 h -0.095703 v 1 h -0.064453 v 1 h -0.027342 v 1 h -0.011719 v 1 h -0.00194 v -1 h 0.00194 V 33 H 4.9940644 V 32 H 4.9667222 V 31 H 4.8944563 V 30 H 4.7811754 v -1 h -0.09961 v -1 h -0.056641 v -1 h -0.021484 v -1 h -0.00781 v -1 h -0.00194 v -1 h -0.00586 v -1 h -0.00391 v -1 h 0.00586 v -1 -1 h 0.015623 v -1 h 0.023438 v -1 h 0.011719 v -1 h 0.00977 v -1 -1 h -0.011719 v -1 h 0.00194 v -1 h 0.00977 v -1 h 0.00781 v -1 h -0.00391 v -1 h 0.00781 V 9 h 0.00977 V 8 h -0.00194 V 7 h 0.00781 V 6 h 0.00781 V 5 h -0.00194 V 4 H 4.67769 V 3 2 H 4.67378 V 1 h -0.0039 V 0 H 4.3300312 v 1 h -0.00391 v 1 h -0.00391 v 1 1 h -0.00586 v 1 h -0.00194 v 1 h 0.00781 v 1 h 0.00781 v 1 h -0.00194 v 1 h 0.00977 v 1 h 0.00781 v 1 h -0.00391 v 1 h 0.00781 v 1 h 0.00977 v 1 h 0.00194 v 1 h -0.011719 v 1 1 h 0.00977 v 1 h 0.011719 v 1 h 0.023438 v 1 h 0.015623 v 1 1 h 0.00586 v 1 h -0.00391 v 1 h -0.00586 v 1 h -0.00194 v 1 h -0.00781 v 1 H 4.374981 v 1 H 4.31834 v 1 H 4.218731 v 1 H 4.1054496 v 1 h -0.072266 v 1 h -0.027342 v 1 h -0.011719 v 1 h -0.00391 V 33 H 3.9687308 V 32 H 3.9472464 V 31 H 3.9335736 V 30 H 3.8613281 V 29 H 3.7011719 V 28 H 3.5957031 v -1 h -0.015625 v -1 h -0.00195 v -1 -1 h 0.00391 v -1 h 0.00781 v -1 h 0.00391 v -1 h 0.00195 v -1 h 0.017578 v -1 h 0.027344 v -1 -1 -1 h 0.00391 v -1 h -0.011719 v -1 h 0.00586 v -1 h 0.00781 v -1 h 0.00195 v -1 h 0.00391 v -1 h 0.011719 V 9 h 0.011719 V 8 h 0.00195 V 7 h 0.00391 V 6 h 0.00781 V 5 h -0.00195 V 4 h -0.00391 V 3 H 3.68164 V 2 H 3.67773 V 1 H 3.67382 V 0 H 3.3261719 v 1 h -0.00391 v 1 h -0.00391 v 1 h -0.00195 v 1 h -0.00391 v 1 h -0.00195 v 1 h 0.00781 v 1 h 0.00391 v 1 h 0.00195 v 1 h 0.011719 v 1 h 0.011719 v 1 h 0.00391 v 1 h 0.00195 v 1 h 0.00781 v 1 h 0.00586 v 1 h -0.011719 v 1 h 0.00391 v 1 1 1 h 0.027344 v 1 h 0.017578 v 1 h 0.00195 v 1 h 0.00391 v 1 h 0.00781 v 1 h 0.00391 v 1 1 h -0.00195 v 1 h -0.015625 v 1 H 3.2988281 v 1 H 3.1386719 v 1 h -0.072266 v 1 h -0.013672 v 1 H 3.03125 v 1 H 3.009766 v 1 h -0.00977 v 1 h -0.00781 v 1 H 2.984376 V 35 H 2.955079 V 34 H 2.933595 V 33 H 2.900392 V 32 H 2.888673 V 31 H 2.904298 V 30 H 2.8886719 V 29 H 2.7714844 V 28 H 2.6289063 v -1 h -0.039063 v -1 -1 h 0.00391 v -1 -1 -1 h 0.00195 v -1 h 0.00977 v -1 h 0.019531 v -1 h 0.013672 v -1 h -0.00391 v -1 h -0.00195 v -1 -1 h -0.011719 v -1 h -0.00195 v -1 h 0.013672 v -1 h 0.011719 v -1 h 0.00781 v -1 h 0.00586 V 9 h 0.00195 V 8 h 0.00195 V 7 h 0.00781 V 6 h 0.011719 V 5 h 0.00781 V 4 3 h -0.01172 V 2 H 2.671875 V 1 h 0.00586 V 0 H 2.3222656 v 1 h 0.00586 v 1 h -0.00586 v 1 h -0.011719 v 1 1 h 0.00781 v 1 h 0.011719 v 1 h 0.00781 v 1 h 0.00195 v 1 h 0.00195 v 1 h 0.00586 v 1 h 0.00781 v 1 h 0.011719 v 1 h 0.013672 v 1 h -0.00195 v 1 h -0.011719 v 1 1 h -0.00195 v 1 h -0.00391 v 1 h 0.013672 v 1 h 0.019531 v 1 h 0.00977 v 1 h 0.00195 v 1 1 1 h 0.00391 v 1 1 h -0.039064 v 1 h -0.142571 v 1 H 2.1113281 v 1 h -0.015625 v 1 h 0.015625 v 1 h -0.011719 v 1 h -0.033203 v 1 h -0.021484 v 1 h -0.029297 v 1 h -0.011718 -0.029297 v -1 h -0.029297 v -1 h -0.015625 v -1 h -0.017578 v -1 h -0.00977 v -1 h -0.021484 v -1 h -0.035156 v -1 h -0.083984 v -1 h -0.125 V 27 H 1.59375 V 26 H 1.59961 V 25 H 1.60547 V 24 H 1.60156 V 23 H 1.5957 V 22 H 1.59375 v -1 h 0.013672 v -1 h 0.013672 v -1 h 0.00586 v -1 h -0.00195 v -1 h 0.00391 V 16 H 1.626964 V 15 H 1.613292 V 14 H 1.609382 V 13 H 1.62696 v -1 h 0.017578 v -1 h 0.011719 v -1 h 0.00195 V 9 H 1.656257 V 8 h 0.00391 V 7 h 0.00586 V 6 h 0.00586 V 5 h 0.00977 V 4 h 0.00195 V 3 H 1.671875 V 2 H 1.669925 V 1 h 0.00977 V 0 H 1.3203125 v 1 h 0.00977 v 1 h -0.00195 v 1 h -0.011719 v 1 h 0.00195 v 1 h 0.00977 v 1 h 0.00586 v 1 h 0.00586 v 1 h 0.00391 v 1 h -0.00195 v 1 h 0.00195 v 1 h 0.011719 v 1 h 0.017578 v 1 h 0.017578 v 1 h -0.00391 v 1 h -0.013672 v 1 h -0.00195 v 1 h 0.00391 v 1 h -0.00195 v 1 h 0.00586 v 1 h 0.013672 v 1 h 0.013672 v 1 h -0.00195 v 1 h -0.00586 v 1 h -0.00391 v 1 h 0.00586 v 1 h 0.00586 v 1 h -0.042967 v 1 H 1.2382813 v 1 h -0.083984 v 1 h -0.035156 v 1 h -0.021484 v 1 h -0.00977 v 1 h -0.017578 v 1 h -0.015625 v 1 h -0.029297 v 1 H 0.9999973 0.9863255 V 35 H 0.9726537 V 34 H 0.9706997 V 33 H 0.9511689 v -1 h -0.03125 V 31 H 0.86914063 V 30 H 0.77148439 V 29 H 0.66210937 v -1 h -0.0644531 v -1 h -0.0136719 v -1 h 0.015625 v -1 h 0.001953 v -1 h -0.0117187 v -1 -1 h 0.001953 v -1 h 0.007813 v -1 h 0.007813 v -1 h -0.001953 v -1 h 0.003906 v -1 h 0.007813 v -1 h -0.007813 v -1 h -0.009766 v -1 h 0.009766 v -1 h 0.0117187 v -1 h 0.0175781 v -1 h 0.0117187 v -1 h 0.009766 V 9 h 0.001953 V 8 h -0.003906 V 7 h -0.001953 V 6 5 h 0.0136718 V 4 h 0.003906 V 3 H 0.6640625 V 2 H 0.6582035 V 1 H 0.6699223 V 0 Z M 27.003906,1 h 0.0019 0.01367 0.02344 v 1 h 0.01953 v 1 h 0.01172 v 1 h -0.0019 v 1 h 0.0098 v 1 h 0.09961 v 1 h 0.126954 v 1 h 0.04687 v 1 h 0.0332 v 1 h 0.02734 v 1 h 0.0039 v 1 h -0.0039 v 1 1 1 h -0.0059 v 1 h -0.0098 v 1 h -0.0078 v 1 h -0.0019 v 1 h 0.0078 v 1 h 0.0019 v 1 h -0.0059 v 1 h -0.0019 v 1 h -0.02539 v 1 h -0.06836 v 1 h -0.06836 v 1 h -0.05469 v 1 h -0.0332 v 1 h 0.0059 v 1 h 0.02148 v 1 h 0.02344 v 1 h 0.03125 v 1 h 0.02148 v 1 h -0.0059 v 1 1 h 0.0019 v 1 h -0.01367 v 1 h -0.01563 v 1 h -0.08594 v 1 h -0.125 v 1 h -0.05664 v -1 h -0.148437 v -1 h -0.0918 v -1 h -0.01563 v -1 h -0.01563 v -1 -1 h 0.0019 v -1 -1 -1 h -0.0059 v -1 h -0.0019 v -1 h 0.0039 v -1 h 0.0059 v -1 h 0.0059 v -1 h -0.0039 v -1 h -0.02735 v -1 h -0.03516 v -1 h -0.01367 v -1 h -0.0039 v -1 -1 h 0.0039 v -1 h 0.0039 v -1 -1 h -0.0078 v -1 h -0.0098 v -1 h -0.0078 v -1 h -0.0039 v -1 -1 h 0.0039 v -1 h 0.0059 v -1 h 0.01953 V 9 h 0.0293 V 8 h 0.05859 V 7 h 0.107421 V 6 h 0.0918 V 5 h 0.03516 V 4 h 0.02734 V 3 h 0.02539 V 2 h 0.02148 z m 1.970703,0 h 0.0059 v 1 1 h -0.0019 V 2 h -0.0039 z m -2.960937,1 h 0.0039 v 1 h 0.02539 v 1 h 0.02734 v 1 h 0.03516 v 1 h 0.0918 v 1 h 0.107422 v 1 h 0.05859 v 1 h 0.0293 v 1 h 0.01953 v 1 h 0.0059 v 1 h 0.0039 v 1 1 h -0.0039 v 1 h -0.0078 v 1 h -0.0098 v 1 h -0.0078 v 1 1 h 0.0039 v 1 h 0.0039 v 1 1 h -0.0059 v 1 h -0.01172 v 1 h -0.03516 v 1 h -0.02734 v 1 h -0.0039 v 1 h 0.0059 v 1 h 0.0059 v 1 h 0.0039 v 1 h -0.0019 v 1 h -0.0059 v 1 1 1 h 0.0019 v 1 1 h -0.01563 v 1 h -0.01563 v 1 h -0.0918 v 1 h -0.148437 v 1 h -0.07227 v 1 1 h 0.08398 v 1 h 0.08398 v 1 h -0.04297 v 1 h 0.06836 v 1 h 0.0039 v 1 h -0.08008 v 1 h 0.113281 v 1 h 0.160156 v 1 h 0.01953 v 1 h -0.03906 v 1 h -0.09375 v 1 h -0.148437 v 1 h -0.08398 -0.09961 v -1 h -0.169922 v -1 h -0.105468 v -1 h -0.04102 v -1 h 0.0078 v -1 h 0.125 v -1 h 0.109375 v -1 h -0.07031 v -1 h -0.0098 v -1 h 0.05078 v -1 h -0.05078 v -1 h 0.0625 v -1 h 0.128906 v -1 h 0.0019 v -1 h -0.1366 V 39 H 25.677734 V 38 H 25.625 v -1 h -0.0059 v -1 h -0.0039 v -1 h -0.0078 v -1 h 0.0039 v -1 h 0.01563 v -1 h 0.0078 v -1 h -0.0039 v -1 h -0.0098 v -1 h 0.0039 v -1 h 0.01758 v -1 h 0.0098 v -1 h 0.0019 v -1 h -0.0098 V 24 H 25.62293 V 23 H 25.6073 v -1 h -0.0059 v -1 h -0.0039 v -1 h -0.0019 v -1 h 0.0059 v -1 h 0.0039 v -1 h 0.0019 v -1 h -0.01172 v -1 h -0.0098 v -1 h -0.0039 v -1 h -0.0019 v -1 h 0.0039 v -1 h 0.0078 v -1 h 0.01563 V 9 h 0.0293 V 8 h 0.06641 V 7 h 0.134766 V 6 h 0.103515 V 5 h 0.04297 V 4 h 0.01758 V 3 h 0.01172 z m 2.96875,1 h 0.0019 v 1 h 0.0059 v 1 h 0.0098 v 1 h 0.08594 v 1 h 0.158203 v 1 h 0.07422 v 1 h 0.04297 v 1 h 0.0332 v 1 h 0.01563 v 1 h 0.0059 v 1 h -0.0039 v 1 h -0.0039 v 1 h -0.0098 v 1 h -0.0059 v 1 h -0.0019 v 1 h 0.0059 v 1 h 0.0019 v 1 h -0.0059 v 1 h -0.0098 v 1 h -0.06249 v 1 H 29.1875 v 1 h -0.117187 v 1 h -0.05859 v 1 h -0.0078 v 1 h 0.02734 v 1 h 0.03516 v 1 h 0.03125 v 1 h 0.04492 v 1 h 0.04883 v 1 h 0.0293 v 1 h 0.0098 v 1 h -0.0078 v 1 h -0.02539 v 1 h -0.02539 v 1 h -0.0059 v 1 h -0.05859 v 1 h -0.103515 v 1 h -0.0039 v -1 h -0.121094 v -1 h -0.06445 v -1 h 0.0039 v -1 h -0.01367 v -1 h -0.0098 v -1 h -0.0039 v -1 h 0.0059 v -1 h 0.0332 v -1 h 0.04687 v -1 h 0.04102 v -1 h 0.03516 v -1 h 0.01172 v -1 h -0.01758 v -1 h -0.04297 v -1 h -0.08203 v -1 h -0.109376 v -1 h -0.07812 v -1 h -0.02344 v -1 h -0.01172 v -1 h 0.0019 v -1 h 0.0019 v -1 h 0.0039 v -1 h -0.0039 v -1 h -0.0078 v -1 h -0.0059 v -1 -1 h -0.0039 v -1 -1 h 0.0098 v -1 h 0.02539 V 9 h 0.03906 V 8 h 0.05859 V 7 h 0.15625 V 6 h 0.0957 V 5 h 0.0098 V 4 h 0.0019 z m -5.986328,1 h 0.01563 v 1 h 0.0059 v 1 h 0.05273 v 1 h 0.156249 v 1 h 0.113282 v 1 h 0.04297 v 1 h 0.02734 v 1 h 0.01172 v 1 h -0.0039 v 1 1 h -0.0019 v 1 h -0.01562 v 1 h -0.0098 v 1 h -0.0019 v 1 h 0.0078 v 1 h 0.0039 v 1 h -0.0019 v 1 h -0.0078 v 1 h -0.01172 v 1 h -0.03125 v 1 h -0.09766 v 1 h -0.103516 v 1 h -0.05078 v 1 h 0.01563 v 1 h 0.07031 v 1 h 0.07422 v 1 h 0.05664 v 1 h 0.03125 v 1 h 0.0078 v 1 1 h 0.0078 v 1 h -0.0059 v 1 h -0.01758 v 1 1 h -0.04492 v 1 h -0.07227 v 1 h 0.04297 v 1 h 0.09766 v 1 h 0.01172 v 1 h -0.136718 v 1 h -0.06055 v 1 h 0.115234 v 1 h 0.04297 v 1 h -0.02734 v 1 h 0.0078 v 1 h 0.0059 v 1 h -0.03906 v 1 h -0.126953 v 1 h -0.113334 -0.04883 V 51 H 22.875 v -1 h -0.105469 v -1 h -0.04102 v -1 h -0.03711 v -1 h -0.04492 v -1 h 0.0625 v -1 h 0.144532 v -1 h -0.03906 v -1 h -0.150391 v -1 h -0.03711 v -1 h 0.0293 v -1 h 0.08203 v -1 h 0.0059 v -1 h -0.04492 v -1 h -0.02539 v -1 h -0.02539 v -1 h -0.0078 v -1 h -0.0019 v -1 h -0.0039 v -1 h 0.01172 v -1 h 0.08594 v -1 h 0.07422 v -1 h 0.08594 v -1 h 0.08789 v -1 h -0.01758 v -1 h -0.04494 v -1 h -0.05469 v -1 h -0.142578 v -1 h -0.08398 v -1 h -0.02539 v -1 h -0.0059 v -1 h -0.0019 v -1 h 0.0039 v -1 h 0.0019 v -1 h -0.0078 v -1 h -0.0078 v -1 h -0.0078 v -1 h -0.0039 v -1 -1 h -0.0019 v -1 h 0.01562 v -1 h 0.04101 V 9 h 0.04492 V 8 h 0.142578 V 7 h 0.142561 V 6 h 0.03125 V 5 h -0.0019 z m 0.992187,0 h 0.01367 v 1 h 0.02148 v 1 h 0.08984 v 1 h 0.164063 v 1 h 0.08008 v 1 h 0.0332 v 1 h 0.02148 v 1 h 0.0098 v 1 h -0.0019 v 1 h -0.0039 v 1 h -0.0039 v 1 h -0.0098 v 1 h -0.01563 v 1 h 0.0019 v 1 h 0.01172 v 1 h 0.0039 v 1 h -0.0019 v 1 h -0.0078 v 1 h -0.0098 v 1 h -0.01367 v 1 h -0.02734 v 1 h -0.05469 v 1 h -0.06252 v 1 h 0.0039 v 1 h 0.04687 v 1 h 0.03516 v 1 h 0.02148 v 1 h 0.01172 v 1 h 0.01758 v 1 h 0.01172 v 1 h 0.0098 v 1 h -0.0019 v 1 1 h 0.0078 v 1 h -0.01758 v 1 h -0.136719 v 1 h -0.09961 v 1 h 0.07227 v 1 h 0.111328 v 1 h -0.07031 v 1 h -0.06445 v 1 h 0.07617 v 1 h 0.01367 v 1 h -0.03906 v 1 h 0.07031 v 1 h 0.0625 v 1 h -0.0019 v 1 h -0.06644 v 1 h -0.15039 v 1 h -0.113282 -0.05664 v -1 h -0.132813 v -1 h -0.126953 v -1 h -0.03906 v -1 h 0.0059 v -1 h 0.0078 v -1 h -0.02734 v -1 h 0.04297 v -1 h 0.115234 v -1 h -0.06055 V 43 H 23.62903 v -1 h 0.01172 v -1 h 0.09766 v -1 h 0.04297 v -1 h -0.07227 v -1 h -0.04492 v -1 -1 h -0.01758 v -1 h -0.0059 v -1 h 0.0078 v -1 -1 h 0.0078 v -1 h 0.03125 v -1 h 0.05664 v -1 h 0.07422 v -1 h 0.07031 v -1 h 0.01563 v -1 h -0.05078 v -1 h -0.103516 v -1 h -0.09766 v -1 h -0.03125 v -1 h -0.01172 v -1 h -0.0078 v -1 h -0.0019 v -1 h 0.0039 v -1 h 0.0078 v -1 h -0.0019 v -1 h -0.0098 v -1 h -0.01563 v -1 h -0.0019 v -1 -1 h -0.0039 v -1 h 0.01172 v -1 h 0.02735 V 9 h 0.04292 V 8 h 0.113281 V 7 h 0.156251 V 6 h 0.05273 V 5 h 0.0059 z m 1.009766,0 h 0.0078 0.0098 v 1 h 0.04297 v 1 h 0.103516 v 1 h 0.134766 v 1 h 0.06641 v 1 h 0.0293 v 1 h 0.01563 v 1 h 0.0078 v 1 h 0.0039 v 1 h -0.0019 v 1 h -0.0039 v 1 h -0.0098 v 1 h -0.01172 v 1 h 0.0019 v 1 h 0.0039 v 1 h 0.0059 v 1 h -0.0019 v 1 h -0.0039 v 1 h -0.0059 v 1 h -0.01562 v 1 h -0.02148 v 1 h -0.0098 v 1 h 0.0019 v 1 h 0.0098 v 1 h 0.01758 v 1 h 0.0039 v 1 h -0.0098 v 1 h -0.0039 v 1 h 0.0078 v 1 h 0.01563 v 1 h 0.0039 v 1 h -0.0078 v 1 h -0.0039 v 1 h -0.0059 v 1 h -0.05273 v 1 h -0.152344 v 1 h -0.136719 v 1 h 0.0019 v 1 h 0.128906 v 1 h 0.0625 v 1 h -0.05078 v 1 h 0.05078 v 1 h -0.0098 v 1 h -0.07031 v 1 h 0.109375 v 1 h 0.125 v 1 h 0.0078 v 1 h -0.03906 v 1 h -0.107422 v 1 H 25.07225 v 1 h -0.0293 -0.04883 v -1 h -0.144531 v -1 h -0.150391 v -1 h -0.06641 v -1 h -0.0019 v -1 h 0.0625 v -1 h 0.07031 v -1 h -0.03906 v -1 h 0.01367 v -1 h 0.07617 V 44 H 24.75 v -1 h -0.07031 v -1 h 0.111328 v -1 h 0.07227 v -1 h -0.09961 v -1 h -0.136719 v -1 h -0.01758 v -1 h 0.0078 v -1 -1 h -0.0019 v -1 h 0.0098 v -1 h 0.01172 v -1 h 0.01758 v -1 h 0.01172 v -1 h 0.02148 v -1 h 0.03516 v -1 h 0.04687 v -1 h 0.0039 v -1 h -0.0625 v -1 h -0.05469 v -1 h -0.02735 v -1 h -0.01367 v -1 h -0.0098 v -1 h -0.0078 v -1 h -0.0019 v -1 h 0.0039 v -1 h 0.01172 v -1 h 0.0019 v -1 h -0.01563 v -1 h -0.0098 v -1 h -0.0039 v -1 h -0.0039 v -1 h -0.0019 v -1 h 0.0098 v -1 h 0.02148 V 9 h 0.0332 V 8 h 0.08008 V 7 h 0.164063 V 6 h 0.08984 V 5 h 0.02148 z m -3,2 h 0.01367 0.02148 v 1 h 0.142577 v 1 h 0.142578 v 1 h 0.04492 v 1 h 0.04102 v 1 h 0.01563 v 1 1 h -0.0019 v 1 h -0.0039 v 1 h -0.0078 v 1 h -0.0078 v 1 h -0.0078 v 1 h 0.0019 v 1 h 0.0039 v 1 h -0.0019 v 1 h -0.0059 v 1 h -0.02539 v 1 h -0.08398 v 1 h -0.142579 v 1 h -0.05469 v 1 h -0.04494 v 1 h -0.0039 -0.03711 v -1 h -0.08984 v -1 h -0.0078 v -1 h -0.11914 v -1 h -0.119141 v -1 h -0.03711 v -1 h -0.0059 v -1 h -0.0059 v -1 h -0.0019 v -1 h 0.0059 v -1 h -0.0078 v -1 h -0.01563 v -1 h -0.0059 v -1 h -0.0059 v -1 -1 -1 h 0.03906 v -1 h 0.04883 V 9 h 0.05273 V 8 h 0.166015 V 7 h 0.111329 z m 7.916016,0 H 30 30.06055 v 1 h 0.152344 v 1 h 0.08008 v 1 h 0.04492 v 1 h 0.04102 v 1 h 0.01953 v 1 h 0.0078 v 1 h -0.0019 v 1 h -0.0059 v 1 h -0.0059 v 1 h -0.0039 v 1 1 h 0.0039 v 1 1 h -0.0078 v 1 h -0.02148 v 1 h -0.09961 v 1 h -0.14258 v 1 h -0.0918 v 1 h -0.03516 v 1 h -0.0059 v -1 h -0.05859 v -1 h -0.117188 v -1 h -0.132812 v -1 h -0.0625 v -1 h -0.0098 v -1 h -0.0039 v -1 h 0.0019 v -1 h 0.0039 v -1 h -0.0019 v -1 h -0.0059 v -1 h -0.0098 v -1 h -0.0039 v -1 h -0.0039 v -1 h 0.0059 v -1 h 0.01563 v -1 h 0.0332 V 9 h 0.04297 V 8 h 0.07422 V 7 h 0.158203 z m 1.02539,0 h 0.07031 0.0293 v 1 h 0.144532 v 1 h 0.07617 v 1 h 0.04687 v 1 h 0.05274 v 1 h 0.01953 v 1 h 0.0098 v 1 h 0.0039 v 1 1 h -0.0078 v 1 h -0.0078 v 1 h -0.0039 v 1 h 0.0059 v 1 1 h -0.0059 v 1 h -0.03711 v 1 h -0.109376 v 1 h -0.123047 v 1 h -0.07422 v 1 1 h 0.04687 v 1 h 0.08984 v 1 h 0.0957 v 1 h -0.0059 v 1 h 0.02344 v 1 h 0.05859 v 1 h 0.01367 v 1 h -0.0059 v 1 h -0.0078 v 1 h -0.01172 v 1 h -0.01172 v 1 h 0.0019 v 1 h -0.02539 v 1 h -0.03125 v 1 h -0.0098 v 1 h -0.01758 v 1 h -0.05273 v 1 h -0.117187 v 1 h -0.03711 v 1 h 0.08203 v 1 h 0.05664 v 1 h -0.02539 v 1 h 0.0059 v 1 h 0.01953 v 1 h 0.0039 v 1 h -0.0332 v 1 h -0.0625 v 1 h -0.05467 v 1 h -0.0039 -0.04883 v -1 h -0.08594 v -1 h -0.05859 v -1 h -0.01563 v -1 h 0.0078 v -1 h 0.0332 v -1 h 0.03125 v -1 h 0.0039 v -1 h 0.05859 v -1 h 0.03906 v -1 h -0.06641 v -1 h -0.08203 v -1 h 0.04102 v -1 h 0.06445 v -1 h -0.0059 v -1 h -0.07813 v -1 h -0.0625 v -1 h -0.01758 v -1 h -0.02735 v -1 h -0.02148 v -1 h -0.0078 v -1 -1 h 0.01953 v -1 h 0.05273 v -1 h 0.03711 v -1 h 0.01953 v -1 h 0.07227 v -1 h 0.07227 v -1 h 0.01758 v -1 h -0.03515 v -1 h -0.0918 v -1 h -0.142578 v -1 h -0.09961 v -1 h -0.02148 v -1 h -0.0078 v -1 -1 h 0.0039 v -1 -1 h -0.0039 v -1 h -0.0059 v -1 h -0.0059 v -1 h -0.0019 v -1 h 0.0078 v -1 h 0.01953 v -1 h 0.04102 V 9 h 0.04492 V 8 h 0.08008 V 7 h 0.152344 z m 1.021485,0 h 0.05469 0.0019 v 1 h 0.128906 v 1 h 0.08398 v 1 h 0.04492 v 1 h 0.05859 v 1 h 0.0293 v 1 h 0.0078 v 1 h 0.0078 v 1 h 0.0019 v 1 h -0.01172 v 1 h -0.01172 v 1 h -0.0078 v 1 h 0.0078 v 1 h 0.0059 v 1 h -0.0019 v 1 h -0.04297 v 1 h -0.09373 v 1 H 32.11914 v 1 h -0.06055 v 1 h 0.04297 v 1 h 0.05078 v 1 h 0.07617 v 1 h 0.0957 v 1 h -0.04883 v 1 h 0.01172 v 1 h 0.07031 v 1 h 0.02735 v 1 h -0.0059 v 1 h -0.01367 v 1 h -0.01758 v 1 h -0.0098 v 1 h 0.0078 v 1 h 0.0098 v 1 h 0.0078 v 1 h -0.02539 v 1 h -0.07227 v 1 h -0.09961 v 1 h -0.10156 v 1 h 0.0098 v 1 h 0.09961 v 1 h 0.01172 v 1 h -0.03906 v 1 h -0.0078 v 1 h 0.01172 v 1 h -0.0059 v 1 H 32.0976 v 1 h -0.06641 v 1 h -0.03516 v 1 h -0.01367 v -1 h -0.05469 v -1 h -0.0625 v -1 h -0.0332 v -1 h 0.0039 v -1 h 0.01953 v -1 h 0.0059 v -1 h -0.02539 v -1 h 0.05664 v -1 h 0.08203 v -1 h -0.03711 v -1 h -0.117188 v -1 h -0.05273 V 41 H 31.75 v -1 h -0.0098 v -1 h -0.03125 v -1 h -0.02539 v -1 h 0.0019 v -1 h -0.01172 v -1 h -0.01172 v -1 h -0.0078 v -1 h -0.0059 v -1 h 0.01367 v -1 h 0.05859 v -1 h 0.02344 v -1 h -0.0059 v -1 h 0.0957 v -1 h 0.08984 v -1 h 0.04687 v -1 -1 h -0.07422 v -1 h -0.125 v -1 h -0.107422 v -1 h -0.03711 v -1 h -0.0059 v -1 -1 h 0.0059 v -1 h -0.0039 v -1 h -0.0078 v -1 h -0.0078 v -1 -1 h 0.0039 v -1 h 0.0098 v -1 h 0.01953 v -1 h 0.05274 V 9 h 0.04687 V 8 h 0.07617 V 7 h 0.144531 z m 1.021484,0 h 0.01367 v 1 h 0.113281 v 1 h 0.09961 v 1 h 0.04297 v 1 h 0.0625 v 1 h 0.02734 v 1 h 0.0059 v 1 h 0.01172 v 1 1 h -0.01758 v 1 h -0.01953 v 1 h -0.0059 v 1 h 0.01172 v 1 h 0.01758 v 1 h 0.0098 v 1 h -0.03516 v 1 h -0.07813 v 1 h -0.103516 v 1 h -0.03906 v 1 h 0.04297 v 1 h -0.02539 v 1 h 0.04687 v 1 h 0.138672 v 1 h -0.04102 v 1 h 0.0059 v 1 h 0.0918 v 1 h 0.03125 v 1 h -0.0098 v 1 h -0.0098 v 1 h -0.01563 v 1 h -0.01563 v 1 h -0.0019 v 1 h 0.0098 v 1 h 0.0059 v 1 h -0.03125 v 1 h -0.07617 v 1 h -0.08984 v 1 h -0.03516 v 1 h 0.04883 v 1 h 0.04492 v 1 h -0.02148 v 1 h -0.03906 v 1 h -0.01172 v 1 1 h -0.02539 v 1 h -0.05664 v 1 h -0.05469 v 1 h -0.0019 -0.03516 v -1 h -0.06641 v -1 h -0.04687 v -1 h -0.0059 v -1 h 0.01172 v -1 h -0.0078 v -1 h -0.03906 v -1 h 0.01172 v -1 h 0.09961 v -1 h 0.0098 v -1 h -0.101577 v -1 h -0.09961 v -1 h -0.07227 v -1 h -0.02539 v -1 h 0.0078 v -1 h 0.0098 v -1 h 0.0078 v -1 h -0.0098 v -1 h -0.01758 v -1 h -0.01367 v -1 h -0.0059 v -1 h 0.02734 v -1 h 0.07031 v -1 h 0.01172 v -1 h -0.04883 v -1 h 0.0957 v -1 h 0.07617 v -1 h 0.05078 v -1 h 0.04297 v -1 h -0.06055 v -1 h -0.105469 v -1 h -0.09375 v -1 h -0.04297 v -1 h -0.0019 v -1 h 0.0059 v -1 h 0.0078 v -1 h -0.0078 v -1 h -0.01172 v -1 h -0.01172 v -1 h 0.0019 v -1 h 0.0078 v -1 h 0.0078 v -1 h 0.0293 v -1 h 0.05859 V 9 h 0.04492 V 8 h 0.08399 V 7 h 0.128913 z M 19.992187,7 h 0.0332 0.0293 v 1 h 0.166015 v 1 h 0.06055 v 1 h 0.04492 v 1 h 0.07031 v 1 h 0.01367 v 1 1 h -0.0039 v 1 h -0.0019 v 1 h -0.0098 v 1 h -0.0019 v 1 h -0.0059 v 1 h -0.01172 v 1 1 h -0.0019 v 1 h -0.04492 v 1 h -0.111329 v 1 h -0.101612 v 1 h -0.0059 v 1 h -0.103515 v 1 h -0.0332 v 1 h 0.123047 v 1 h 0.07422 v 1 h 0.02539 v 1 h 0.146484 v 1 h 0.04297 v 1 1 h -0.0019 v 1 h -0.0059 v 1 1 h -0.01563 v 1 h -0.02539 v 1 h -0.01953 v 1 h -0.01953 v 1 h -0.03125 v 1 h -0.03711 v 1 h -0.03906 v 1 h 0.01563 v 1 h 0.04687 v 1 h -0.0059 v 1 h -0.05859 v 1 h -0.08789 v 1 h -0.0625 -0.04492 v -1 h -0.09766 v -1 h -0.08789 v -1 h -0.03711 v -1 h 0.0078 v -1 h 0.02148 v -1 h 0.01367 v -1 h -0.01563 v -1 h -0.04687 v -1 h -0.04687 v -1 h -0.04102 v -1 h -0.02148 v -1 h -0.0078 v -1 h -0.01172 v -1 h -0.0039 v -1 h 0.0059 v -1 h -0.0039 v -1 h 0.02344 v -1 h 0.111328 v -1 h 0.01367 v -1 h 0.01563 v -1 h 0.164063 v -1 h -0.0019 v -1 h -0.0625 v -1 h -0.01172 v -1 h -0.115235 v -1 h -0.09375 v -1 h -0.03516 v -1 h 0.0078 v -1 h 0.0039 v -1 h -0.01172 v -1 h -0.0098 v -1 h 0.0078 v -1 h 0.0039 v -1 h -0.0098 v -1 h -0.0039 v -1 h 0.0039 v -1 h 0.0293 v -1 h 0.08203 v -1 h 0.04883 V 9 h 0.0918 V 8 h 0.121093 z m 0.953126,0 h 0.07031 0.09766 v 1 h 0.166016 v 1 h 0.05273 v 1 h 0.04883 v 1 h 0.03711 v 1 h 0.0019 v 1 h -0.0019 v 1 h -0.0039 v 1 h -0.0059 v 1 h -0.01563 v 1 h -0.0078 v 1 h 0.0059 v 1 h -0.0019 v 1 h -0.0059 v 1 h -0.0059 v 1 h -0.03711 v 1 h -0.119141 v 1 h -0.11914 v 1 h -0.0078 v 1 h -0.08984 v 1 h -0.0098 V 26 H 20.89064 v -1 h -0.0059 v -1 h -0.10152 v -1 h -0.111328 v -1 h -0.04492 v -1 h -0.0019 v -1 -1 h -0.01172 v -1 h -0.0059 v -1 h -0.0039 v -1 h -0.0078 v -1 h -0.0019 v -1 h -0.0039 v -1 -1 h 0.01367 v -1 h 0.07031 v -1 h 0.04492 V 9 h 0.06055 V 8 h 0.166016 z m 12.945312,0 h 0.113281 0.05469 v 1 h 0.107422 v 1 h 0.04687 v 1 h 0.05859 v 1 h 0.0332 v 1 h 0.01367 v 1 h 0.02147 v 1 h -0.0059 v 1 h -0.02734 v 1 h -0.02148 v 1 h 0.0019 v 1 h 0.01563 v 1 h 0.01758 v 1 h 0.02147 v 1 h -0.02147 v 1 h -0.06055 v 1 H 34.14833 v 1 h -0.03125 v 1 h 0.02539 v 1 h -0.119141 v 1 h -0.01758 v 1 h 0.162109 v 1 h 0.06836 v 1 h 0.01367 v 1 h 0.113282 v 1 h 0.03515 v 1 h -0.0098 v 1 h -0.0078 v 1 h -0.01366 v 1 h -0.01172 v 1 h -0.0058 v 1 h -0.002 v 1 H 34.328 v 1 h -0.0332 v 1 h -0.05859 v 1 h -0.05664 v 1 h 0.0019 v 1 h 0.04102 v 1 h 0.01172 v 1 h -0.02344 v 1 h -0.03711 v 1 h -0.02148 v 1 H 34.1346 v 1 h -0.04297 v 1 h -0.06055 v 1 h -0.03516 v 1 h -0.0019 V 52 H 33.93933 V 51 H 33.88269 V 50 H 33.8573 v -1 -1 h -0.01172 v -1 h -0.03906 v -1 h -0.02148 v -1 h 0.04492 v -1 h 0.04883 v -1 h -0.03516 v -1 h -0.08984 v -1 h -0.07617 v -1 h -0.03125 v -1 h 0.0059 v -1 h 0.0098 v -1 h -0.0019 v -1 h -0.01563 v -1 h -0.01563 v -1 h -0.0098 v -1 h -0.0098 v -1 h 0.03125 v -1 h 0.0918 v -1 h 0.0059 v -1 h -0.04102 v -1 h 0.138671 v -1 h 0.04687 v -1 h -0.02539 v -1 h 0.04305 v -1 h -0.03906 v -1 h -0.103515 v -1 h -0.07813 v -1 h -0.03516 v -1 h 0.01172 v -1 h 0.01563 v -1 h 0.01172 v -1 h -0.0059 v -1 h -0.01953 v -1 h -0.01758 v -1 -1 h 0.01172 v -1 h 0.0059 v -1 h 0.02734 v -1 h 0.0625 V 9 h 0.04297 V 8 h 0.09961 z m 1.050783,0 h 0.06836 v 1 h 0.0957 v 1 h 0.05078 v 1 h 0.04883 v 1 h 0.04297 v 1 h 0.02929 v 1 h 0.02735 v 1 h -0.0059 v 1 h -0.0332 v 1 h -0.0058 v 1 h 0.0078 v 1 h 0.01366 v 1 h 0.02345 v 1 h 0.02344 v 1 h -0.01563 v 1 h -0.04883 v 1 h -0.111326 v 1 h -0.05664 v 1 h 0.0098 v 1 h -0.115234 v 1 h -0.01366 v -1 h -0.119141 v -1 h 0.02538 v -1 h -0.03126 v -1 h -0.11133 v -1 h -0.06055 v -1 h -0.02147 v -1 h 0.02147 v -1 h 0.01757 v -1 h 0.01563 v -1 h 0.002 v -1 h -0.02147 v -1 h -0.02735 v -1 h -0.0058 v -1 h 0.02147 v -1 h 0.01366 v -1 h 0.0332 v -1 h 0.05859 V 9 h 0.04688 V 8 h 0.107422 z M 18.011719,8 h 0.0078 0.01758 v 1 h 0.103516 v 1 h 0.07227 v 1 h 0.07031 v 1 h 0.03906 v 1 h 0.0078 v 1 1 h -0.0078 v 1 h 0.0039 v 1 h 0.01563 v 1 h 0.0039 v 1 h -0.0078 v 1 h 0.0078 v 1 h 0.01758 v 1 h -0.02148 v 1 h -0.0625 v 1 h -0.13086 v 1 h -0.05273 v 1 h -0.0332 v 1 h 0.0332 v 1 h 0.150391 v 1 h 0.01172 v 1 h 0.03125 v 1 h 0.08203 v 1 h -0.0039 v 1 h -0.0098 v 1 h 0.01367 v 1 h 0.0019 v 1 h -0.01563 v 1 h -0.0098 v 1 h -0.02344 v 1 h -0.05078 v 1 h -0.05078 v 1 h -0.04492 v 1 h -0.01367 v 1 h 0.02148 v 1 h 0.0098 v 1 h -0.02539 v 1 h -0.07031 v 1 h -0.0625 -0.02734 v -1 h -0.05274 v -1 h -0.05273 v -1 h -0.03125 v -1 h -0.0039 v -1 h -0.0039 v -1 h -0.02734 v -1 h -0.04883 v -1 h -0.05078 v -1 h -0.04492 v -1 h -0.03711 v -1 h -0.01367 v -1 h 0.0098 v -1 h 0.01562 v -1 h -0.01758 v -1 h -0.01563 v -1 h 0.0625 v -1 h 0.07226 v -1 h 0.09961 v -1 h 0.111327 v -1 h 0.01953 v -1 h -0.05076 v -1 h -0.119141 v -1 h -0.11914 v -1 h -0.0332 v -1 h -0.0098 v -1 h 0.02148 v -1 h 0.02148 v -1 h 0.0019 v -1 h 0.0039 v -1 h 0.01172 v -1 h 0.0098 v -1 h 0.0059 v -1 h 0.0078 v -1 h 0.01563 v -1 h 0.06445 v -1 h 0.06836 v -1 h 0.06641 V 9 h 0.04493 z m 0.951171,0 h 0.06055 0.105468 v 1 h 0.0918 v 1 h 0.04883 v 1 h 0.08203 v 1 h 0.0293 v 1 h 0.0039 v 1 h -0.0039 v 1 h -0.0098 v 1 h 0.0039 v 1 h 0.0078 v 1 h -0.0098 v 1 h -0.01172 v 1 h 0.0039 v 1 h 0.0098 v 1 h -0.03711 v 1 h -0.09375 v 1 h -0.115234 v 1 h -0.01172 v 1 h -0.0625 v 1 h -0.0019 v 1 h 0.164063 v 1 h 0.01563 v 1 h 0.01367 v 1 h 0.111328 v 1 h 0.02344 v 1 h -0.0039 v 1 h 0.0039 v 1 h -0.0019 v 1 h -0.01172 v 1 h -0.0059 v 1 h -0.02344 v 1 h -0.04102 v 1 h -0.04687 v 1 h -0.04687 v 1 h -0.01562 v 1 h 0.01367 v 1 h 0.02148 v 1 h 0.0078 v 1 h -0.03711 v 1 h -0.08789 v 1 h -0.07031 -0.04492 v -1 h -0.08984 v -1 h -0.07031 v -1 h -0.02539 v -1 h 0.0098 v -1 h 0.02149 v -1 h -0.01367 v -1 h -0.04496 v -1 h -0.05078 v -1 h -0.05078 v -1 h -0.02344 v -1 h -0.0098 v -1 h -0.01563 v -1 -1 h 0.01563 v -1 h -0.0078 v -1 h -0.0059 v -1 h 0.08203 v -1 h 0.03125 v -1 h 0.01172 V 28 H 18.9043 v -1 h 0.0332 v -1 h -0.0332 v -1 h -0.05273 v -1 h -0.130859 v -1 h -0.0625 v -1 h -0.02148 v -1 h 0.01758 v -1 h 0.0078 v -1 h -0.0078 v -1 h 0.0039 v -1 h 0.01563 v -1 h 0.0039 v -1 h -0.0078 v -1 -1 h 0.0078 v -1 h 0.03906 v -1 h 0.07031 v -1 h 0.07227 V 9 h 0.103515 z m 16.93164,0 h 0.0957 0.04883 v 1 h 0.05664 v 1 h 0.04688 v 1 h 0.04883 v 1 h 0.03516 v 1 h 0.01757 v 1 h 0.002 v 1 h -0.01366 v 1 1 h 0.01366 v 1 h 0.01757 v 1 h 0.03126 v 1 h 0.02344 v 1 h -0.0039 v 1 h -0.04102 v 1 h -0.107422 v 1 H 36.06453 v 1 h -0.01172 v 1 h -0.04297 -0.115234 v -1 h 0.0098 v -1 h -0.05664 v -1 h -0.11133 v -1 h -0.04883 v -1 h -0.01563 v -1 h 0.02345 v -1 h 0.02345 v -1 h 0.01366 v -1 h 0.0078 v -1 h -0.0059 v -1 h -0.0332 v -1 h -0.0058 v -1 h 0.02735 v -1 h 0.02929 v -1 h 0.04297 v -1 h 0.04883 V 9 h 0.05078 z m 1.066406,0 h 0.03711 v 1 h 0.04883 v 1 h 0.04688 v 1 h 0.03906 v 1 h 0.02538 v 1 h 0.01366 v 1 h 0.0078 v 1 h 0.0058 v 1 h 0.01366 v 1 h 0.01954 v 1 h 0.02735 v 1 h 0.0332 v 1 h 0.01366 v 1 h 0.0058 v 1 h -0.02345 v 1 h -0.09766 v 1 H 37.04865 v 1 h -0.03516 v 1 h -0.0058 -0.06054 v -1 h -0.01172 v -1 h -0.101564 v -1 h -0.107422 v -1 h -0.04102 v -1 h -0.0039 v -1 h 0.02345 v -1 h 0.03126 v -1 h 0.01757 v -1 h 0.01366 v -1 -1 h -0.01366 v -1 h 0.002 v -1 h 0.01757 v -1 h 0.03516 v -1 h 0.04883 v -1 h 0.04688 V 9 h 0.05664 z M 17.015625,9 h 0.01758 v 1 h 0.06641 v 1 h 0.06836 v 1 h 0.06445 v 1 h 0.01563 v 1 h 0.0078 v 1 h 0.0059 v 1 h 0.0098 v 1 h 0.01172 v 1 h 0.0039 v 1 h 0.0019 v 1 h 0.02148 v 1 h 0.02148 v 1 h -0.0098 v 1 h -0.0332 v 1 h -0.119141 v 1 h -0.119127 v 1 h -0.0293 -0.05078 v -1 h -0.138672 v -1 h -0.09375 v -1 h -0.0078 v -1 h 0.0019 v -1 h 0.0078 v -1 h 0.02539 v -1 h 0.03125 v -1 h 0.01953 v -1 h 0.01367 v -1 h 0.0039 v -1 h 0.01172 v -1 h 0.0332 v -1 h 0.04102 v -1 h 0.04687 v -1 h 0.0332 v -1 h 0.01563 z m 20.937498,0 h 0.04883 0.01563 v 1 h 0.03711 v 1 h 0.02735 v 1 h 0.01366 v 1 h 0.01172 v 1 h 0.0098 v 1 h 0.01954 v 1 h 0.02344 v 1 h 0.02929 v 1 h 0.03906 v 1 h 0.03126 v 1 h 0.01172 v 1 1 h -0.02344 v 1 h -0.08008 v 1 h -0.121091 v 1 h -0.06055 -0.03515 v -1 h -0.128907 v -1 h -0.09766 v -1 h -0.02345 v -1 h 0.0059 v -1 h 0.01366 v -1 h 0.0332 v -1 h 0.02735 v -1 h 0.01954 v -1 h 0.01366 v -1 h 0.0059 v -1 h 0.0078 v -1 h 0.01366 v -1 h 0.02538 v -1 h 0.03906 v -1 h 0.04687 z m 1.029299,0 h 0.01563 v 1 h 0.02538 v 1 h 0.02147 v 1 h 0.0098 v 1 h 0.0059 v 1 h 0.01172 v 1 h 0.02538 v 1 h 0.03126 v 1 h 0.03126 v 1 h 0.04297 v 1 h 0.03711 v 1 h 0.02148 v 1 h -0.0098 v 1 h -0.03711 v 1 h -0.0664 v 1 h -0.103518 v 1 h -0.03126 -0.06055 v -1 h -0.121095 v -1 h -0.08008 v -1 h -0.02344 v -1 -1 h 0.01172 v -1 h 0.03126 v -1 h 0.03906 v -1 h 0.02929 v -1 h 0.02345 v -1 h 0.01954 v -1 h 0.0098 v -1 h 0.01172 v -1 h 0.01366 v -1 h 0.02735 v -1 h 0.03711 z m 0.994141,1 h 0.02147 v 1 h 0.01366 v 1 h 0.0078 v 1 h 0.0078 v 1 h 0.01563 v 1 h 0.02345 v 1 h 0.03126 v 1 h 0.03515 v 1 h 0.04297 v 1 h 0.04688 v 1 h 0.02538 v 1 h -0.01172 v 1 h -0.04492 v 1 h -0.06445 v 1 h -0.08594 v 1 h -0.01954 -0.06641 v -1 h -0.103514 v -1 h -0.06641 v -1 h -0.03711 v -1 h -0.0098 v -1 h 0.02147 v -1 h 0.03711 v -1 h 0.04297 v -1 h 0.03126 v -1 h 0.03126 v -1 h 0.02538 v -1 h 0.01172 v -1 h 0.0058 v -1 h 0.0098 v -1 h 0.02147 z m -23.962891,1 h 0.01953 v 1 h 0.04687 v 1 h 0.04102 v 1 h 0.0332 v 1 h 0.01172 v 1 h 0.0039 v 1 h 0.01367 v 1 h 0.01953 v 1 h 0.03125 v 1 h 0.02539 v 1 h 0.0078 v 1 h 0.0019 v 1 h -0.0078 v 1 h -0.09375 v 1 H 16.02923 v 1 H 16.0136 15.98235 V 25 H 15.9179 v -1 h -0.05469 v -1 h -0.01758 v -1 h -0.0039 v -1 h 0.0019 v -1 h 0.01758 v -1 h 0.04297 v -1 h 0.04102 v -1 h 0.02344 v -1 h 0.0078 v -1 h 0.0059 v -1 h 0.02344 v -1 h 0.01367 v -1 h -0.0059 z m 24.966797,1 h 0.0078 0.0058 v 1 h 0.0098 v 1 h 0.01366 v 1 h 0.01757 v 1 h 0.02147 v 1 h 0.03906 v 1 h 0.05078 v 1 h 0.05078 v 1 h 0.02344 v 1 h -0.01366 v 1 h -0.04102 v 1 h -0.06055 v 1 h -0.07031 v 1 h -0.01366 -0.0625 v -1 h -0.08594 v -1 h -0.06445 v -1 h -0.04492 v -1 h -0.01172 v -1 h 0.02538 v -1 h 0.04688 v -1 h 0.04297 v -1 h 0.03515 v -1 h 0.03126 v -1 h 0.02344 v -1 h 0.01563 v -1 h 0.0078 z m 1.001952,2 h 0.01366 v 1 h 0.0078 v 1 h 0.01757 v 1 h 0.04297 v 1 h 0.05469 v 1 h 0.04492 v 1 h 0.01757 v 1 h -0.01366 v 1 h -0.03516 v 1 h -0.05078 v 1 h -0.04688 v 1 h -0.01954 -0.05078 v -1 h -0.07031 v -1 h -0.06055 v -1 h -0.04102 v -1 h -0.01366 v -1 h 0.02345 v -1 h 0.05078 v -1 h 0.05078 v -1 h 0.03906 v -1 h 0.02147 v -1 h 0.01757 z m 0.996095,2 h 0.01757 0.0058 v 1 h 0.04101 v 1 h 0.04687 v 1 h 0.02929 v 1 h 0.0098 v 1 h -0.0098 v 1 h -0.02929 v 1 h -0.0332 v 1 h -0.02345 v 1 h -0.0078 v 1 h 0.04297 v 1 h 0.08399 v 1 h 0.03906 v 1 h 0.0078 v 1 h -0.0098 v 1 h -0.02538 v 1 h -0.03126 v 1 h -0.02929 v 1 h -0.03126 v 1 h -0.02147 v 1 h -0.01366 v 1 h -0.01757 v 1 h -0.01172 v 1 h -0.0078 v 1 h -0.0039 v 1 h 0.002 v 1 h 0.0039 v 1 h -0.0039 v 1 h -0.0058 v 1 h -0.0098 v -1 h -0.0078 v -1 h -0.002 v -1 h 0.002 v -1 h 0.0078 v -1 h -0.0039 v -1 h -0.01563 v -1 h -0.01954 V 37 H 42.9239 v -1 h -0.01563 v -1 h -0.02735 v -1 h -0.03906 v -1 h -0.03711 v -1 h -0.0332 v -1 h -0.02929 v -1 h -0.01172 v -1 h 0.01757 v -1 h 0.103518 v -1 h 0.117188 v -1 h 0.02735 v -1 h -0.03126 v -1 h -0.04687 v -1 h -0.05078 v -1 h -0.03515 v -1 h -0.01366 v -1 h 0.01757 v -1 h 0.04492 v -1 h 0.05469 v -1 h 0.04297 z m -27.953125,1 h 0.0098 0.02148 v 1 h 0.03906 v 1 h 0.04297 v 1 h 0.01758 v 1 h 0.0019 v 1 h -0.0039 v 1 h -0.01758 v 1 h -0.05469 v 1 h -0.05664 -0.0059 v -1 h -0.0098 v -1 h -0.0078 v -1 h -0.0039 v -1 h -0.0019 v -1 h 0.0059 v -1 h 0.01172 v -1 h 0.01172 z m 28.931639,0 h 0.04102 0.01954 v 1 h 0.02929 v 1 h 0.01563 v 1 h 0.002 v 1 h -0.01172 v 1 h -0.01757 v 1 H 44.0235 v 1 h -0.0039 v 1 h 0.002 v 1 h 0.02929 v 1 h 0.04102 v 1 h 0.02344 v 1 h 0.002 v 1 h -0.01172 v 1 H 44.09 v 1 h -0.02538 v 1 h -0.02345 v 1 H 44.0236 v 1 h -0.01757 v 1 h -0.0098 v 1 h -0.0078 v 1 h -0.0078 V 37 H 43.96306 V 36 H 43.9494 v -1 h -0.02147 v -1 h -0.03126 v -1 h -0.02929 v -1 h -0.03126 v -1 h -0.02538 v -1 h -0.0098 v -1 h 0.0078 v -1 h 0.03906 v -1 h 0.08399 v -1 h 0.04297 v -1 h -0.0078 v -1 h -0.02345 v -1 h -0.0332 v -1 h -0.02929 v -1 h -0.0098 v -1 h 0.0098 v -1 h 0.02929 v -1 h 0.04687 z m 0.996095,1 h 0.02929 0.01757 v 1 h 0.0098 v 1 h -0.002 v 1 h -0.0098 v 1 h -0.0078 v 1 h -0.002 v 1 h 0.002 v 1 h 0.0058 v 1 h 0.01757 v 1 h 0.01954 v 1 h 0.0098 v 1 h -0.0039 v 1 h -0.01366 v 1 h -0.0098 v 1 h -0.01172 v 1 h -0.01366 v 1 h -0.0098 v 1 h -0.0039 v -1 h -0.01757 v -1 h -0.02344 v -1 h -0.02538 v -1 h -0.01757 v -1 h -0.0098 v -1 h 0.002 v -1 h 0.02344 v -1 h 0.04102 v -1 h 0.02929 v -1 h 0.002 v -1 h -0.0039 v -1 h -0.01172 v -1 h -0.01757 v -1 h -0.01172 v -1 h 0.002 v -1 h 0.01563 z m -33.974609,6 h 0.0019 v 1 h 0.01953 v 1 1 h -0.0098 v -1 h -0.0098 v -1 h -0.0019 z m 19.017578,2 h 0.01563 v 1 h 0.07227 v 1 h 0.07227 v 1 h 0.01953 v 1 h 0.03711 v 1 h 0.05273 v 1 h 0.02148 v 1 h -0.0019 v 1 h -0.0078 v 1 h -0.02148 v 1 h -0.02734 v 1 h -0.01758 v 1 h -0.0625 v 1 h -0.07813 v 1 h -0.0059 v 1 h 0.06445 v 1 h 0.04102 v 1 h -0.08203 v 1 h -0.06641 v 1 h 0.03906 v 1 h 0.05859 v 1 h 0.0039 v 1 h 0.03125 v 1 h 0.0332 v 1 h 0.0078 v 1 h -0.01563 v 1 h -0.05861 v 1 h -0.08594 v 1 h -0.02344 -0.06836 v -1 h -0.103516 v -1 h -0.05859 v -1 h -0.02734 v -1 h 0.0098 v -1 h 0.07031 v -1 h 0.0625 v -1 -1 h 0.04883 v -1 h 0.0293 V 44 H 29.90625 V 43 H 29.875 v -1 h 0.08398 v -1 h 0.05859 v -1 h -0.02148 v -1 h -0.103516 v -1 h -0.05859 v -1 h -0.0059 v -1 h -0.02539 v -1 h -0.02539 v -1 h -0.0078 v -1 h 0.0098 v -1 h 0.0293 v -1 h 0.04883 v -1 h 0.04492 v -1 h 0.03125 v -1 h 0.03516 v -1 h 0.02734 z m 12.023438,0 h 0.01172 v 1 h 0.117187 v 1 h 0.103515 v 1 h 0.01757 v 1 h -0.01172 v 1 h -0.02929 v 1 h -0.0332 v 1 h -0.03711 v 1 h -0.03907 v 1 h -0.02735 v 1 h -0.01563 v 1 h -0.01954 v 1 h -0.01954 v 1 h -0.01563 v 1 h -0.0039 v 1 h 0.0078 v 1 h 0.002 v 1 h -0.002 v 1 h -0.0078 v 1 h -0.0098 v 1 h -0.0078 v 1 h -0.0078 -0.01366 v -1 h -0.01172 v -1 h -0.0078 v -1 h -0.0078 v -1 h -0.0039 v -1 h 0.0039 v -1 h 0.0058 v -1 h -0.0058 v -1 h -0.01954 v -1 h -0.01954 v -1 h -0.02345 v -1 h -0.02735 v -1 h -0.03126 v -1 h -0.04102 v -1 h -0.03515 v -1 h -0.03126 v -1 h -0.02735 v -1 h -0.0039 v -1 h 0.05078 v -1 h 0.177734 v -1 h 0.09961 z m -26.998047,1 h 0.0059 v 1 h 0.101564 v 1 h 0.0625 v 1 h 0.05469 v 1 h 0.02344 v 1 h -0.02539 v 1 h -0.04101 v 1 h -0.04102 v 1 h -0.03906 v 1 h -0.03906 v 1 h -0.0332 v 1 h -0.01172 -0.0059 v -1 h -0.0039 v -1 h -0.0059 v -1 h -0.01172 v -1 h -0.01953 v -1 h -0.01367 v -1 h -0.0098 v -1 h 0.0039 v -1 h 0.01563 v -1 h 0.01563 v -1 h 0.01758 z m 0.951171,0 h 0.0332 v 1 h 0.113281 v 1 h 0.107422 v 1 h 0.07813 v 1 h 0.04492 v 1 h -0.02344 v 1 h -0.02539 v 1 1 h -0.0039 v 1 h -0.0332 v 1 h -0.05273 v 1 h -0.05469 v 1 h -0.04883 v 1 h -0.03906 v 1 h -0.02539 v 1 h -0.0059 -0.0078 v -1 h -0.0078 v -1 h -0.01367 v -1 h -0.02734 v -1 h -0.03125 v -1 h -0.0332 v -1 h -0.03906 v -1 h -0.03906 v -1 h -0.04102 v -1 h -0.04101 v -1 h -0.02539 v -1 h 0.02344 v -1 h 0.05469 v -1 h 0.0625 v -1 h 0.101563 z m 1.021485,0 h 0.02539 v 1 h 0.111329 v 1 h 0.09961 v 1 h 0.07227 v 1 h 0.0625 v 1 h -0.01563 v 1 h -0.01758 v 1 h 0.01563 v 1 h 0.0098 v 1 h -0.01367 v 1 h -0.03711 v 1 h -0.04492 v 1 h -0.05078 v 1 h -0.04883 v 1 h -0.02734 v 1 h -0.0039 v 1 h -0.0039 v 1 h -0.03125 v 1 h -0.05273 v 1 h -0.0078 v -1 h -0.01758 v -1 h -0.02148 v -1 h -0.02148 v -1 h -0.01758 v -1 h -0.02539 v -1 h -0.03906 v -1 h -0.04883 v -1 h -0.05469 v -1 h -0.05273 v -1 h -0.0332 v -1 h -0.0039 v -1 -1 h -0.02539 v -1 h -0.02344 v -1 h 0.04492 v -1 h 0.07813 v -1 h 0.107422 v -1 h 0.113281 z m 22.001953,0 h 0.0098 v 1 h 0.126953 v 1 h 0.09766 v 1 h 0.07226 v 1 h 0.04102 v 1 h -0.0078 v 1 h -0.02148 v 1 h -0.02147 v 1 h -0.02929 v 1 h -0.03711 v 1 h -0.03515 v 1 h -0.03126 v 1 h -0.02929 v 1 h -0.01757 v 1 h -0.0098 v 1 h -0.002 v 1 h 0.0098 v 1 h -0.0039 v 1 h -0.01757 v 1 h -0.02345 v 1 h -0.02147 v 1 h -0.02345 v 1 h -0.01757 v 1 h -0.002 -0.01757 v -1 h -0.02735 v -1 h -0.03515 v -1 h -0.02735 v -1 h -0.02735 v -1 h -0.01757 v -1 h 0.0058 v -1 h 0.0078 v -1 h 0.0039 v -1 h -0.01757 v -1 h -0.02735 v -1 h -0.03516 v -1 h -0.03515 v -1 h -0.0332 v -1 h -0.02929 v -1 h -0.02735 v -1 h -0.02147 v -1 h -0.0098 v -1 h 0.0058 v -1 h 0.09375 v -1 h 0.0957 v -1 h 0.08203 v -1 h 0.08789 z m 0.998045,0 h 0.0332 v 1 h 0.181641 v 1 h 0.08203 v 1 h 0.02148 v 1 h -0.002 v 1 h -0.01954 v 1 h -0.02929 v 1 h -0.0332 v 1 h -0.02735 v 1 h -0.03516 v 1 h -0.0332 v 1 h -0.02538 v 1 h -0.01954 v 1 h -0.01172 v 1 1 h 0.002 v 1 h -0.002 v 1 h -0.0098 v 1 h -0.0098 v 1 h -0.01563 v 1 h -0.01757 v 1 h -0.01563 v 1 h -0.01172 -0.002 -0.01563 V 48 H 39.95488 V 47 H 39.9334 v -1 h -0.02345 v -1 h -0.01757 v -1 h -0.0039 v -1 h 0.0098 v -1 h -0.002 v -1 h -0.0098 V 40 H 39.86891 V 39 H 39.83962 V 38 H 39.80836 V 37 H 39.7732 V 36 H 39.73636 V 35 H 39.70707 V 34 H 39.6856 v -1 h -0.02147 v -1 h -0.0078 v -1 h 0.04101 v -1 h 0.07227 v -1 h 0.09766 v -1 h 0.126953 z m 0.978518,0 h 0.0625 0.04492 v 1 h 0.177733 v 1 h 0.05078 v 1 h -0.0039 v 1 h -0.02735 v 1 h -0.03126 v 1 h -0.03516 v 1 h -0.04101 v 1 h -0.02929 v 1 h -0.02929 v 1 h -0.02345 v 1 h -0.01954 v 1 H 41.0488 v 1 H 41.043 v 1 h 0.0058 v 1 h 0.0039 v 1 h -0.0039 v 1 H 41.041 v 1 h -0.0078 v 1 h -0.01172 v 1 h -0.01366 v 1 h -0.0098 v 1 h -0.0058 v -1 h -0.01563 v -1 h -0.01757 v -1 h -0.01563 v -1 h -0.0098 v -1 h -0.0098 v -1 h -0.002 v -1 h 0.002 v -1 -1 h -0.01172 v -1 h -0.01954 v -1 h -0.02538 v -1 h -0.0332 v -1 h -0.03516 v -1 h -0.02735 v -1 h -0.0332 v -1 h -0.02929 v -1 h -0.01954 v -1 h -0.002 v -1 h 0.02147 v -1 h 0.08203 v -1 h 0.181641 z m 4.99414,0 h 0.01954 0.0039 v 1 h 0.002 v 1 h -0.0039 v 1 h -0.01172 v 1 h -0.002 v -1 h -0.01366 v -1 h -0.0039 v -1 h 0.0098 z m -25.0625,1 h 0.123047 0.03125 v 1 h 0.08399 v 1 h 0.05859 v 1 h 0.142579 v 1 h 0.03516 v 1 h 0.0039 v 1 h -0.0078 v 1 h -0.0078 v 1 h -0.0078 v 1 h -0.0293 v 1 h -0.02148 v 1 h 0.01758 v 1 h 0.02539 v 1 h -0.01172 v 1 h -0.05664 v 1 h -0.121098 v 1 h -0.01367 v 1 h 0.11914 v 1 h 0.04297 v 1 h -0.05469 v 1 h -0.05664 v 1 h -0.08984 v 1 h -0.07031 -0.04297 v -1 h -0.0957 v -1 h -0.08789 v -1 h -0.05859 v -1 h -0.0059 v -1 h 0.04687 v -1 h 0.01563 v -1 h -0.03906 v -1 h -0.03711 v -1 h -0.03125 v -1 h -0.01953 v -1 h -0.01953 v -1 h -0.02539 v -1 h -0.01367 v -1 h -0.0019 v -1 h -0.0059 v -1 h -0.0019 v -1 -1 h 0.04297 v -1 h 0.146485 v -1 h 0.02539 v -1 h 0.07422 z m 1.037109,0 h 0.0918 0.07422 v 1 h 0.08594 v 1 h 0.07422 v 1 h 0.08594 v 1 h 0.01172 v 1 h -0.0039 v 1 h -0.0019 v 1 h -0.0078 v 1 h -0.02539 v 1 h -0.02539 v 1 h -0.04492 v 1 h 0.0059 v 1 h 0.08203 v 1 h 0.0293 v 1 h -0.03711 v 1 h -0.150391 v 1 h -0.03906 v 1 h 0.144531 v 1 h 0.0625 v 1 h -0.04492 v 1 h -0.03711 v 1 h -0.04102 v 1 h -0.105468 v 1 h -0.08594 -0.04297 V 50 H 21.89064 V 49 H 21.8008 v -1 h -0.05664 v -1 h -0.05469 v -1 h 0.04297 v -1 h 0.11914 v -1 h -0.01367 v -1 h -0.121107 v -1 h -0.05664 v -1 h -0.01172 v -1 h 0.02539 v -1 h 0.01758 v -1 h -0.02149 v -1 h -0.0293 v -1 h -0.0059 v -1 h -0.0098 v -1 h -0.0078 v -1 h 0.0039 v -1 h 0.03516 v -1 h 0.142579 v -1 h 0.05859 v -1 h 0.08398 z m 12.890626,0 h 0.16211 0.09961 v 1 h 0.11133 v 1 h 0.03516 v 1 h 0.124999 v 1 h 0.03906 v 1 h -0.0098 v 1 h -0.01172 v 1 h -0.0098 v 1 h -0.01757 v 1 h -0.01366 v 1 h -0.01172 v 1 h -0.02735 v 1 h -0.03516 v 1 h -0.03516 v 1 h -0.02345 v 1 h 0.002 v 1 h 0.01954 v 1 h 0.0098 v 1 h -0.03126 v 1 h -0.03515 v 1 h -0.0332 v 1 h -0.0332 v 1 h -0.04492 v 1 h -0.04492 v 1 h -0.01366 -0.03516 v -1 h -0.06055 v -1 h -0.04492 v -1 h -0.01563 v -1 h -0.02148 v -1 h -0.03711 v -1 h -0.02345 v -1 h 0.01172 v -1 h 0.04101 v -1 h 0.002 v -1 h -0.05664 v -1 h -0.05859 v -1 h -0.03344 v -1 h -0.01954 v -1 h -0.002 v -1 h -0.0059 v -1 h -0.01172 v -1 h -0.01366 v -1 h -0.0078 v -1 h -0.0098 v -1 h 0.03516 v -1 h 0.11328 v -1 h 0.01366 v -1 h 0.06836 z m 1.074217,0 h 0.126953 0.0625 v 1 h 0.07031 v 1 h 0.05469 v 1 h 0.142576 v 1 h 0.03126 v 1 h -0.01172 v 1 h -0.0098 v 1 h -0.01563 v 1 h -0.02147 v 1 h -0.02148 v 1 h -0.01954 v 1 h -0.03126 v 1 h -0.02929 v 1 h -0.01954 v 1 h -0.0078 v 1 h 0.002 v 1 h 0.01172 v 1 h -0.0058 v 1 h -0.0332 v 1 h -0.03711 v 1 h -0.03906 v 1 h -0.03711 v 1 h -0.03906 v 1 h -0.02929 v 1 h -0.01757 v -1 h -0.04492 v -1 h -0.04492 v -1 h -0.0332 v -1 h -0.0332 v -1 h -0.03516 v -1 h -0.03126 v -1 h 0.0098 v -1 h 0.01954 v -1 h 0.002 v -1 h -0.02345 v -1 h -0.03516 v -1 h -0.03515 v -1 h -0.02735 v -1 h -0.01172 v -1 h -0.01366 v -1 h -0.01757 v -1 h -0.0098 v -1 h -0.01172 v -1 h -0.0098 v -1 h 0.03907 v -1 h 0.124999 v -1 h 0.03516 v -1 h 0.111327 z m 0.998049,0 h 0.117187 0.07031 v 1 h 0.05664 v 1 h 0.08008 v 1 h 0.138672 v 1 h 0.01563 v 1 h -0.0098 v 1 h -0.01757 v 1 h -0.01563 v 1 h -0.02345 v 1 h -0.02735 v 1 h -0.03516 v 1 h -0.03126 v 1 h -0.02929 v 1 h -0.01563 v 1 1 h 0.0078 v 1 h 0.0039 v 1 h -0.01366 v 1 h -0.02929 v 1 h -0.03516 v 1 h -0.03906 v 1 h -0.03516 v 1 h -0.02929 v 1 h -0.0078 -0.03126 v -1 h -0.03711 v -1 h -0.03711 v -1 h -0.03906 v -1 h -0.03711 v -1 h -0.0332 v -1 h -0.0058 v -1 h 0.01172 v -1 h 0.002 v -1 h -0.0078 v -1 h -0.01954 v -1 h -0.02929 v -1 h -0.03126 v -1 h -0.01954 v -1 h -0.02147 v -1 h -0.02147 v -1 h -0.01563 v -1 h -0.0098 v -1 h -0.01172 v -1 h 0.03126 v -1 h 0.142576 v -1 h 0.05469 v -1 h 0.07032 z m 1.003906,0 h 0.09766 0.08594 v 1 h 0.08203 v 1 h 0.0957 v 1 h 0.09375 v 1 h 0.0059 v 1 h -0.0098 v 1 h -0.02147 v 1 h -0.02735 v 1 h -0.02929 v 1 h -0.0332 v 1 h -0.03516 v 1 h -0.03516 v 1 h -0.02735 v 1 h -0.01757 v 1 h 0.0039 v 1 h 0.0078 v 1 h 0.0058 v 1 h -0.01757 v 1 h -0.02735 v 1 h -0.02735 v 1 h -0.03516 v 1 h -0.02735 v 1 h -0.01757 v 1 h -0.0058 v -1 h -0.02929 v -1 h -0.03516 v -1 h -0.03906 v -1 h -0.03516 v -1 h -0.02929 v -1 h -0.01366 v -1 h 0.0039 v -1 h 0.0078 v -1 -1 h -0.01563 v -1 h -0.02929 v -1 h -0.03126 v -1 h -0.03516 v -1 h -0.02735 v -1 h -0.02345 v -1 h -0.01563 v -1 h -0.01757 v -1 h -0.0098 v -1 h 0.01563 v -1 h 0.138676 v -1 h 0.08008 v -1 h 0.05664 z m 25.091797,4 h 0.002 v 1 h 0.02344 v 1 h 0.01563 v 1 h -0.01366 v 1 h -0.0098 -0.02735 v -1 h -0.0078 v -1 h 0.0098 v -1 h 0.0078 z m -33.996095,9 h 0.0293 0.0078 v 1 h 0.08398 v 1 h -0.03125 v 1 h -0.06836 v 1 h 0.0293 v 1 h 0.04883 v 1 1 h 0.0625 v 1 h 0.07031 v 1 h 0.0098 v 1 h -0.02734 v 1 h -0.05859 v 1 h -0.103515 v 1 h -0.04883 -0.08789 v -1 h -0.115235 v -1 h -0.08008 v -1 h -0.04687 v -1 h 0.01953 v -1 h 0.126953 v -1 h 0.08789 v -1 h -0.0332 v -1 h 0.03711 v -1 h 0.04687 v -1 h -0.04883 v -1 h 0.01172 v -1 h 0.07813 z m -2.070312,1 h 0.08398 0.0332 v 1 h 0.04492 v 1 h -0.03906 v 1 h 0.07031 v 1 h 0.02344 v 1 h -0.06445 v 1 h 0.105469 v 1 h 0.160156 v 1 h 0.02735 v 1 h -0.04687 v 1 h -0.09375 v 1 h -0.134765 v 1 h -0.09766 -0.117188 v -1 h -0.14844 v -1 h -0.09375 v -1 h -0.03906 v -1 h 0.01953 v -1 h 0.160157 v -1 h 0.113281 v -1 h -0.08008 v -1 h 0.0039 v -1 h 0.06836 v -1 h -0.04297 v -1 h 0.08399 z m 1.015625,0 h 0.07227 0.05273 v 1 h 0.01172 v 1 h -0.04883 v 1 h 0.04687 v 1 h 0.03711 v 1 h -0.0332 v 1 h 0.08789 v 1 h 0.126954 v 1 h 0.01953 v 1 h -0.04687 v 1 h -0.08008 v 1 h -0.115234 v 1 H 28 27.896484 v -1 h -0.134766 v -1 h -0.09375 v -1 h -0.04687 v -1 h 0.02734 v -1 h 0.160156 v -1 h 0.105469 v -1 h -0.06445 v -1 h 0.02344 v -1 h 0.07031 v -1 h -0.03906 v -1 h 0.04492 z M 4.001953,47 h 0.00194 v 1 h -0.00194 z m 2.9863284,3 h 0.00194 0.013673 v 1 h -0.00586 v 1 h -0.00391 v 1 h -0.00194 v 1 h -0.00194 v 1 h 0.00977 v 1 h 0.013673 v 1 h 0.00781 v 1 h 0.00977 v 1 h 0.00391 v 1 h -0.00194 v 1 H 7.015661 v 1 H 6.998084 v 1 H 6.9844112 V 62 H 6.957069 V 61 H 6.935585 v -1 h -0.00194 v -1 h 0.00391 v -1 h -0.00781 v -1 h -0.00781 v -1 h 0.011719 v -1 h 0.019531 v -1 h 0.017577 v -1 h 0.017577 v -1 h 0.00194 v -1 h -0.00194 z m 0.9902341,7 h 0.00586 v 1 h 0.00781 v 1 h 0.013673 v 1 h 0.00781 v 1 h -0.00781 v 1 h -0.00391 -0.017577 v -1 h -0.017577 v -1 h -0.00194 v -1 h 0.00391 v -1 h 0.00977 z" /></g></svg>
